<?xml version="1.0" standalone="no"?>
<!DOCTYPE svg PUBLIC "-//W3C//DTD SVG 1.1//EN" "http://www.w3.org/Graphics/SVG/1.1/DTD/svg11.dtd" >
<svg xmlns="http://www.w3.org/2000/svg">
<metadata>
This is a custom SVG webfont generated by Font Squirrel.
Copyright   : ChocolateBox C Copyright PJL 02
</metadata>
<defs>
<font id="webfontuxrJgxaE" horiz-adv-x="342" >
<font-face units-per-em="2048" ascent="1638" descent="-410" />
<missing-glyph horiz-adv-x="526" />
<glyph unicode=" "  horiz-adv-x="526" />
<glyph unicode="&#x09;" horiz-adv-x="526" />
<glyph unicode="&#xa0;" horiz-adv-x="526" />
<glyph unicode="!" d="M211 266q53 0 71.5 -39t18.5 -90t-50 -92t-104 -41q-53 0 -79.5 41t-26.5 94q0 27 16.5 49.5t42 40t55 27.5t56.5 10zM170 348q-16 0 -28.5 12.5t-12.5 32.5q0 80 -20.5 306.5t-20.5 596.5q0 63 2 126t11.5 113t32 81t61.5 31q27 0 42 -8.5t22 -42t8 -104.5t1 -196 q0 -381 -25.5 -601t-25.5 -294q0 -20 -15.5 -36.5t-31.5 -16.5z" />
<glyph unicode="&#x22;" horiz-adv-x="602" d="M41 1696q23 -6 52.5 -8t53.5 -2q23 0 54.5 3t54.5 7l-14 -170q-4 -39 -30 -65.5t-65 -26.5q-45 0 -67.5 30.5t-26.5 71.5zM346 1696q23 -6 52.5 -8t54.5 -2q23 0 54.5 3t53.5 7l-14 -170q-2 -39 -28.5 -65.5t-65.5 -26.5q-45 0 -69 30.5t-26 71.5z" />
<glyph unicode="$" horiz-adv-x="737" d="M403 1204h84l-18 -180q31 -2 65.5 -7t65.5 -16.5t50.5 -27t19.5 -37.5v-139q0 -25 -13 -25q-14 0 -38.5 32t-61.5 58q-47 35 -100 47l-31 -303q47 -23 94 -48.5t86 -59t63.5 -80.5t24.5 -113q0 -84 -30.5 -141.5t-78.5 -95t-107.5 -57t-115.5 -23.5l-14 -150h-84l15 150 q-37 2 -79 8t-78 16.5t-58.5 25.5t-22.5 36q0 43 3 87t3 85q0 10 7 16t14 6q14 0 31.5 -36.5t43.5 -59.5q29 -27 68 -43t80 -25l33 324l-93 44q-47 24 -83.5 57.5t-60.5 80.5t-24 115q0 109 80 194t242 101zM522 233q0 55 -33.5 91t-85.5 65l-28 -291q51 6 99 43t48 92z M236 784q0 -47 31.5 -79.5t78.5 -59.5l29 275q-59 -4 -99 -46.5t-40 -89.5z" />
<glyph unicode="%" horiz-adv-x="1249" d="M383 1651q59 0 110.5 -11.5l100.5 -23.5l99 -23.5t110 -11.5q78 0 151.5 30.5t159.5 30.5h66l-1039 -1644h-67l1007 1593q-41 -4 -77 -16l-74 -26q-37 -13 -73 -22t-73 -9q-51 0 -96 4t-90 10q47 -61 73.5 -146.5t26.5 -177.5q0 -88 -25.5 -163.5t-71.5 -132t-110.5 -88 t-142.5 -31.5q-82 0 -140 36.5t-95 98t-54.5 142.5t-17.5 169t24.5 163t68.5 130t107.5 87t141.5 32zM358 1563q-84 0 -112.5 -66.5t-28.5 -204.5q0 -70 7 -142.5t25.5 -132t48.5 -97t73 -37.5q86 0 122.5 73.5t36.5 210.5q0 68 -9 138.5t-29.5 128t-53.5 93.5t-80 36z M893 842q68 0 125 -36t100 -97.5t66.5 -141.5t23.5 -168t-25.5 -163.5t-71.5 -132t-110.5 -88t-142.5 -31.5q-82 0 -140.5 36.5t-95 98t-54 142.5t-17.5 169t23.5 163t68.5 130t108.5 87t141.5 32zM868 754q-84 0 -112.5 -66.5t-28.5 -204.5q0 -70 7 -142.5t25.5 -131.5 t48.5 -97t73 -38q86 0 122.5 73.5t36.5 210.5q0 68 -9 138.5t-29.5 128t-53.5 93.5t-80 36z" />
<glyph unicode="&#x26;" horiz-adv-x="1665" d="M1339 999q51 0 109 5l113 8l-7 -15q-76 -31 -154.5 -89t-123.5 -156q-47 -98 -106.5 -194.5t-129.5 -174.5l27 -41q86 -133 152.5 -191.5t152.5 -58.5q57 0 118.5 7t106.5 38l27 -41q-39 -35 -110.5 -73.5t-143.5 -38.5q-135 0 -260 63.5t-205 185.5q-39 -41 -89 -86 t-105.5 -81.5t-115.5 -60t-122 -23.5q-70 0 -145.5 31.5t-139 85t-105.5 123t-42 145.5q0 184 137 315t352 225l-53 97q-37 66 -54 127t-17 137q0 55 18 120.5t63 123t118 95.5t183 38q51 0 104.5 -17.5t97.5 -52.5t72 -87t28 -122t-35 -137.5t-89.5 -124.5t-120 -101.5 t-126.5 -64.5l282 -489q102 115 191 303q12 25 21.5 60.5t9.5 70.5q0 39 -20.5 70.5t-78.5 43.5l6 15q45 -4 100.5 -8.5t108.5 -4.5zM551 1329q0 -63 12 -106t41 -93l88 -149q115 57 193 165.5t78 223.5q0 68 -18.5 105.5t-48.5 56t-63.5 24t-64.5 5.5q-47 0 -86 -25 t-68.5 -59.5t-46 -75.5t-16.5 -72zM270 457q0 -45 17.5 -96.5t48.5 -94.5t73 -71.5t93 -28.5q98 0 188 23.5t184 103.5l-315 565q-131 -53 -210 -160.5t-79 -240.5z" />
<glyph unicode="'" horiz-adv-x="296" d="M41 1696q23 -6 52.5 -8t53.5 -2q23 0 54.5 3t54.5 7l-14 -170q-4 -39 -30 -65.5t-65 -26.5q-45 0 -67.5 30.5t-26.5 71.5z" />
<glyph unicode="(" horiz-adv-x="378" d="M262 1741h76q-88 -205 -110.5 -422t-22.5 -428q0 -231 24.5 -470t108.5 -462h-76q-92 225 -156.5 462.5t-64.5 469.5q0 211 64.5 428t156.5 422z" />
<glyph unicode=")" horiz-adv-x="378" d="M41 1741h76q92 -205 156.5 -422t64.5 -428q0 -231 -64.5 -469t-156.5 -463h-76q84 223 108.5 461.5t24.5 470.5q0 211 -21.5 428t-111.5 422z" />
<glyph unicode="*" horiz-adv-x="319" d="M160 1700q25 0 39 -68q66 20 77 0q6 -10 -6 -28.5t-34 -38.5q49 -45 36 -68q-6 -10 -26.5 -10t-48.5 10q-14 -61 -37 -61q-25 0 -39 63q-57 -18 -72 2q-6 10 3 27.5t30 36.5q-20 20 -31.5 37.5t-5.5 27.5q12 20 76 0q6 31 16.5 50.5t22.5 19.5z" />
<glyph unicode="," d="M211 262q27 0 44 -20.5t27.5 -49t14.5 -61.5t4 -59q0 -94 -12.5 -179.5t-57.5 -111.5l-55 31q35 47 35 96q0 27 -1 51.5t-9 50.5q-31 -10 -54 -10q-53 0 -79.5 41t-26.5 94q0 27 16.5 49.5t42 40t55 27.5t56.5 10z" />
<glyph unicode="-" horiz-adv-x="774" d="M41 678h692v-105h-692v105z" />
<glyph unicode="." d="M211 262q53 0 71.5 -39t18.5 -90t-50 -92t-104 -41q-53 0 -79.5 41t-26.5 94q0 27 16.5 49.5t42 40t55 27.5t56.5 10z" />
<glyph unicode="/" horiz-adv-x="563" d="M467 1647h55l-426 -1649h-55z" />
<glyph unicode="0" horiz-adv-x="1308" d="M692 1667q170 0 280.5 -67.5t176 -183.5t92.5 -270.5t27 -330.5t-41 -328.5t-122 -265t-201 -178.5t-277 -66q-168 0 -281 66t-180.5 178.5t-96 265t-28.5 328.5t47 330.5t132 270.5t205 183.5t267 67.5zM672 1577q-98 0 -169 -61.5t-116 -166t-65.5 -243.5t-20.5 -295 t14.5 -293t53.5 -238.5t107.5 -161t178.5 -59.5q90 0 160 59.5t117 163t70.5 240.5t23.5 293t-10 294t-46 242.5t-106.5 165t-191.5 60.5z" />
<glyph unicode="1" horiz-adv-x="595" d="M324 10q-53 0 -106.5 -3t-104.5 -7v16q49 25 82.5 72t35.5 111q2 156 3.5 310.5t1.5 309.5q0 154 -4 231l-5 128q0 18 -6 51t-16 65.5t-25.5 57t-36.5 24.5q-20 0 -48.5 -16.5t-43.5 -18.5q-10 0 -10 13v24q0 23 55.5 48.5t110.5 70.5q31 25 57 51l48 49q22 23 39.5 38.5 t25.5 15.5q16 0 26.5 -19.5t15.5 -48.5t7 -64.5t2 -68.5q-2 -152 -7 -315.5t-5 -309.5q0 -154 4 -307t12 -307q2 -63 32 -114.5t91 -80.5v-16q-59 4 -116.5 7t-114.5 3z" />
<glyph unicode="2" horiz-adv-x="1138" d="M100 0q-18 0 -28.5 12.5t4.5 32.5q94 133 212 267t222 272.5t175 286t71 307.5q0 51 -9.5 116.5t-42 124t-96 99.5t-170.5 41q-29 0 -65.5 -6.5t-68.5 -17.5t-54.5 -27.5t-22.5 -39.5q0 -27 18.5 -40t42 -25t42 -33.5t18.5 -69.5q0 -92 -52 -125.5t-103 -33.5 q-59 0 -105.5 48t-46.5 111q0 45 30.5 106.5t94 118t159 96.5t222.5 40q106 0 190 -36t142.5 -93t90 -131t31.5 -150q0 -154 -80.5 -298t-195.5 -285.5t-241 -281.5t-218 -284h502q39 0 87 21.5t89 50.5q53 39 90 79t47 40q6 0 11.5 -10.5t5.5 -16.5q0 -41 -18 -89l-33 -95 q-14 -41 -49 -61.5t-80 -20.5h-818z" />
<glyph unicode="3" horiz-adv-x="1193" d="M502 -27q-92 0 -175 25t-146.5 69t-101.5 103t-38 129q0 84 49 138.5t133 54.5q74 0 98.5 -35t24.5 -76q0 -70 -23.5 -94.5t-52 -30.5t-52 -9t-23.5 -30q0 -18 26.5 -46t67.5 -53.5t91 -44t97 -18.5q154 0 242 44t132 110.5t55.5 142.5t11.5 140q0 55 -19.5 114.5 t-57.5 108.5t-95.5 81.5t-133.5 32.5q-70 0 -112.5 -9t-68 -21.5t-36 -22.5t-16.5 -10q-10 -4 -21.5 0t-11.5 12q0 23 24.5 54.5t67.5 56.5q53 29 121 54.5t125 68.5q70 53 105.5 126.5t35.5 143.5q0 39 -15 83t-43 81t-70 61.5t-93 24.5q-111 0 -192.5 -23.5t-140 -53.5 t-94.5 -53.5t-54 -23.5t-19 29q0 37 55.5 81t138.5 83t180 65.5t179 26.5q213 0 318.5 -87t105.5 -218q0 -76 -25.5 -133.5t-65.5 -103.5t-91 -84l-102 -76q94 -6 161.5 -44t110.5 -94.5t63.5 -124t20.5 -133.5q0 -111 -43 -216t-126 -189t-204.5 -135.5t-277.5 -51.5z" />
<glyph unicode="4" horiz-adv-x="1312" d="M47 506l709 1085q10 16 22.5 28.5t34.5 12.5h125q55 0 55 -47v-760v-134q0 -67 2 -134q31 8 63 25.5t60 38.5q53 39 90 78.5t47 39.5q6 0 11.5 -10t5.5 -16q0 -41 -18 -89l-33 -96q-16 -41 -50 -61.5t-79 -20.5h-93q2 -57 5.5 -116.5t5.5 -118.5q2 -63 31.5 -114.5 t91.5 -80.5v-16q-59 4 -117 7t-115 3q-53 0 -106.5 -3t-104.5 -7v16q49 25 83 72t36 111q2 61 3 123.5t1 123.5h-713q-20 0 -44.5 14.5t-8.5 45.5zM813 549v270v600q0 27 -8 27q-6 0 -21 -21l-583 -876h612z" />
<glyph unicode="5" horiz-adv-x="1296" d="M328 352q0 -33 -14.5 -64.5t-39.5 -47.5q-20 -14 -44.5 -16.5t-24.5 -24.5q0 -25 33.5 -48.5t82 -42t99.5 -30.5t86 -12q100 0 176 32.5t126 86t74.5 122t24.5 139.5q0 115 -41 195t-105.5 131t-142 74.5t-151.5 23.5q-57 0 -105.5 -14t-86 -30.5t-61.5 -31t-32 -14.5 q-14 0 -28.5 7.5t-8.5 23.5l293 774q8 20 23.5 41t38.5 21h712q16 0 29.5 -18.5t13.5 -35.5v-178q0 -12 -4 -23.5t-12 -11.5q-14 0 -25.5 23.5t-32 52.5t-55 52.5t-96.5 23.5h-489l-207 -526q106 59 248 59q90 0 184 -28.5t171 -89t126 -151.5t49 -218q0 -106 -39 -214 t-114.5 -195t-188.5 -141.5t-260 -54.5q-41 0 -120 11.5t-156.5 48.5t-135 104.5t-57.5 179.5q0 57 38 117t114 60q49 0 92 -34t43 -108z" />
<glyph unicode="6" horiz-adv-x="1212" d="M678 1090q113 0 205 -39t155.5 -110t98 -168t34.5 -212t-32.5 -222.5t-100 -189t-172 -131t-245.5 -49.5q-285 0 -432.5 195.5t-147.5 560.5q0 156 48 319.5t137 298t218 220.5t289 86q53 0 114.5 -13.5t114 -43t86 -79t33.5 -122.5q0 -51 -46 -99.5t-97 -48.5 q-53 0 -93 41t-40 82q0 47 16.5 69.5t34.5 34t34.5 17.5t16.5 16q0 20 -18.5 33.5t-45 21t-56 9.5t-54.5 2q-117 0 -200.5 -64.5t-136 -161t-77 -207t-24.5 -204.5v-47q31 39 66.5 75.5t80.5 65.5t102.5 46.5t133.5 17.5zM653 997q-78 0 -142.5 -35.5t-110.5 -99 t-70.5 -148.5t-24.5 -186q0 -100 22.5 -188t63.5 -154.5t96.5 -105.5t120.5 -39q66 0 125.5 39t105.5 105.5t72.5 155.5t26.5 187q0 100 -20.5 186.5t-57.5 149t-89 98t-118 35.5z" />
<glyph unicode="7" horiz-adv-x="1132" d="M328 1528h555q-125 -158 -232.5 -324t-184.5 -338t-121 -350t-44 -360v-47q0 -27 3 -51.5t10.5 -41t19.5 -16.5h176q10 0 15 17.5t8.5 42t3.5 52.5v48q0 170 18 354t75.5 369.5t166 364.5t288.5 341q6 6 7 13q0 14 -17.5 27t-36.5 13h-893q-16 0 -29.5 -18t-13.5 -35 q0 -53 -30.5 -99t-30.5 -89q0 -12 8 -22.5t14 -10.5q29 0 51 25l49 55q28 31 66 55.5t99 24.5z" />
<glyph unicode="8" horiz-adv-x="1212" d="M672 1659q211 0 331.5 -98.5t120.5 -284.5q0 -74 -29.5 -129t-78.5 -96t-111.5 -73t-126.5 -60q78 -29 148.5 -74t125 -103.5t87 -127t32.5 -146.5q0 -92 -47 -179t-125.5 -156t-183 -110.5t-219.5 -41.5q-166 0 -272.5 30.5t-170 86t-88 132t-24.5 168.5q0 135 92 251 t240 171q-119 61 -190.5 172t-71.5 223q0 115 48 199t127 138.5t180.5 81t205.5 26.5zM449 762q-18 0 -53.5 -23.5t-71 -67.5t-62 -107.5t-26.5 -143.5q0 -160 80.5 -264.5t232.5 -104.5q76 0 151.5 18.5t137 57.5t100.5 97.5t39 137.5q0 80 -54.5 153t-134 127t-171.5 87 t-168 33zM657 1587q-63 0 -125.5 -15.5t-109.5 -47t-77 -80.5t-30 -117t37 -132.5t94.5 -115.5t127 -81.5t133.5 -30.5q35 0 75.5 23.5t77.5 66.5t62.5 100t25.5 125q0 135 -81 220t-210 85z" />
<glyph unicode="9" horiz-adv-x="1212" d="M535 526q-113 0 -205 39t-155.5 109.5t-98.5 168t-35 212.5t32.5 222t100.5 189t172.5 131.5t245.5 49.5q285 0 432 -196t147 -560q0 -156 -48 -319.5t-137 -298t-218 -220.5t-289 -86q-53 0 -114.5 13.5t-113.5 43t-86 79t-34 122.5q0 51 46 99.5t97 48.5q53 0 93.5 -41 t40.5 -82q0 -45 -16.5 -68.5t-35 -35t-35 -17.5t-16.5 -16q0 -20 18.5 -33.5t45 -21t56.5 -9.5t54 -2q117 0 201 64.5t136 161t77 207t25 204.5v47q-31 -39 -67 -76t-81 -65.5t-102 -46t-133 -17.5zM559 618q78 0 142.5 36t110.5 98.5t70.5 148.5t24.5 186t-22.5 188.5 t-63.5 155t-96 105.5t-121 39t-125 -39t-105 -105.5t-73 -155.5t-27 -188q0 -100 20.5 -186t57.5 -148.5t89 -98.5t118 -36z" />
<glyph unicode=":" d="M211 262q53 0 71.5 -39t18.5 -90t-50 -92t-104 -41q-53 0 -79.5 41t-26.5 94q0 27 16.5 49.5t42 40t55 27.5t56.5 10zM211 963q53 0 71.5 -39t18.5 -90t-50 -92.5t-104 -41.5q-53 0 -79.5 41t-26.5 95q0 27 16.5 49t42 39.5t55 28t56.5 10.5z" />
<glyph unicode=";" d="M211 262q27 0 44 -20.5t27.5 -49t14.5 -61.5t4 -59q0 -94 -12.5 -179.5t-57.5 -111.5l-55 31q35 47 35 96q0 27 -1 51.5t-9 50.5q-31 -10 -54 -10q-53 0 -79.5 41t-26.5 94q0 27 16.5 49.5t42 40t55 27.5t56.5 10zM211 963q53 0 71.5 -39t18.5 -90t-50 -92.5t-104 -41.5 q-53 0 -79.5 41t-26.5 95q0 27 16.5 49t42 39.5t55 28t56.5 10.5z" />
<glyph unicode="?" horiz-adv-x="1132" d="M211 262q53 0 71.5 -39t18.5 -90t-50 -92t-104 -41q-53 0 -79.5 41t-26.5 94q0 27 16.5 49.5t42 40t55 27.5t56.5 10zM195 348q-16 0 -28.5 12.5t-12.5 32.5q0 86 31.5 152.5t82.5 119t118 93.5l134 80l121 69q59 35 105.5 82t75 111.5t28.5 156.5q0 72 -32 124.5t-80 86 t-107.5 50t-114.5 16.5q-115 0 -192.5 -33t-128 -71.5t-78 -71.5t-45.5 -33q-12 0 -20.5 14.5t-8.5 26.5q0 37 30.5 66.5t69.5 60.5q82 63 213 108.5t281 45.5q76 0 156.5 -16.5t146.5 -61.5t109 -125t43 -205q0 -127 -62.5 -211t-158 -145.5t-205 -107.5t-204.5 -96 t-157.5 -114.5t-62.5 -163.5q0 -20 -15.5 -36.5t-31.5 -16.5z" />
<glyph unicode="@" horiz-adv-x="1699" d="M1161 543q2 -72 23.5 -119t75.5 -47q23 0 45 23.5t41.5 56t36 66.5t22.5 57q39 125 39 274q0 162 -47 303t-127 246.5t-188.5 167t-231.5 61.5t-231.5 -61.5t-188.5 -167t-127 -246.5t-47 -303t47 -303t127 -246.5t188.5 -167t231.5 -61.5q45 0 98 12t102.5 29.5t89.5 36 t58 30.5q10 6 34.5 8.5t43 -4t18.5 -22.5t-39 -47q-82 -66 -188 -90.5t-217 -24.5q-168 0 -315.5 66.5t-257 182.5t-173 270.5t-63.5 330.5t63.5 330.5t173 270.5t257 182.5t315.5 66.5t315.5 -66.5t257 -182.5t173 -270.5t63.5 -330.5q0 -72 -11.5 -139.5t-31.5 -130.5 q-29 -86 -57 -125q-96 -160 -244 -160q-51 0 -101.5 2t-96.5 14.5t-85 40t-63 76.5q-53 -35 -121 -65.5t-123 -30.5q-53 0 -102.5 18.5t-88 51t-62 77.5t-23.5 97q0 96 54 151t132 92t167 66t163 72v180q0 63 -30 102t-69 39q-33 0 -64.5 -16.5t-56 -41t-40 -54t-15.5 -58.5 q0 -18 6 -38.5t6 -39.5q0 -18 -19 -30.5t-36 -12.5q-25 0 -45 7.5t-41 17.5q-29 16 -49 36.5t-20 49.5q0 57 38.5 105t98.5 83q57 33 126.5 53.5t145.5 20.5q53 0 97 -6t77 -29.5t51.5 -73t18.5 -135.5v-78q2 -125 6 -249.5t10 -249.5zM963 559q2 70 2 155v154l-103 -51 q-53 -27 -98 -56.5t-75 -63t-30 -74.5q0 -49 36 -103.5t118 -54.5q41 2 81 29.5t69 64.5z" />
<glyph unicode="A" horiz-adv-x="1875" d="M1274 225l-152 406q-186 -61 -340.5 -157.5t-277.5 -217.5q-20 -20 -46 -50t-47 -58l-37 -49q-15 -22 -16 -27q0 -29 31 -60v-12q-82 12 -166 12q-92 0 -182 -12l10 12q72 23 131.5 78t93.5 139l496 1198q6 19 6 40q0 57 -44 117q-46 62 -111 108l-5 14q51 -4 121 -7 t125 -3h56l94 -240l268 -672q84 6 170 7q51 0 103 -3q138 -6 272 -26l8 -41q-52 2 -103 2q-84 0 -163 -6q-127 -10 -246 -35l184 -463q29 -74 74 -126t111 -79v-14q-115 18 -226 18q-121 0 -241 -18v12q0 14 10 29.5t22.5 32t22.5 35t10 36.5t-5 41t-11 39zM848 1350 l-363 -893q121 121 272.5 191.5t319.5 105.5l-223 596h-6z" />
<glyph unicode="B" horiz-adv-x="1796" d="M889 1712q37 0 99.5 -3t135 -15.5t148.5 -37t136 -69.5t98 -112.5t38 -163.5q-2 -135 -72.5 -230.5t-158.5 -152.5q76 -18 150.5 -47t127.5 -70q84 -66 124 -156t40 -188t-57.5 -213t-165.5 -184q-74 -45 -171 -55.5t-185 -10.5q-39 0 -96 1l-113 2q-57 1 -106.5 2 t-74.5 1q-53 0 -119.5 -3t-117.5 -7v18q49 25 92 94.5t47 133.5q8 156 9 287t1 286q0 16 -1 32.5t1 41.5v138v117q0 56 -2 117.5t-6 137.5q-4 49 -28 94q84 -4 133 -8t73.5 -9t31.5 -10.5t7 -9.5q0 -8 -5 -29.5t-7 -35.5q-6 -117 -6 -207v-234q45 0 109.5 -3t97.5 -3 q43 0 89 18.5t83 61.5t61.5 111.5t24.5 171.5q0 82 -54.5 142t-130 99t-153.5 57.5t-127 18.5q-164 0 -290 -48t-212 -124t-130 -168t-44 -178q0 -106 27.5 -153.5t74.5 -47.5q49 0 72 28t23 67q0 82 -25 116.5t-53 57.5q29 0 60.5 -13.5t60 -37t47 -56.5t18.5 -74 q0 -123 -72.5 -173t-158.5 -50q-43 0 -86 17.5t-79 53.5t-58.5 87t-22.5 119q0 133 57.5 252.5t166 211t266 144.5t358.5 53zM883 276q0 -55 13 -89.5t47 -56t93.5 -30t151.5 -8.5q82 0 154.5 22.5t117.5 61.5q59 49 76.5 116.5t17.5 119.5q0 82 -25.5 159.5t-81.5 139 t-144.5 99.5t-210.5 38q-12 0 -40 1t-61 3t-64 2h-50q0 -137 4 -289q3 -101 2 -195q1 -48 0 -94z" />
<glyph unicode="C" horiz-adv-x="1640" d="M952 92q61 0 138 10.5t153 32t145.5 55t118.5 80.5q31 31 51.5 61.5t28.5 30.5q12 0 12 -12q0 -10 -8 -30.5t-20 -47.5l-26 -53l-23 -49q-14 -31 -33 -48.5t-43 -29.5q-127 -63 -258 -87.5t-287 -24.5q-178 0 -334.5 67.5t-273.5 185t-184.5 275.5t-67.5 336t64.5 340 t182.5 282.5t282.5 192.5t365.5 72q33 0 94.5 -5.5t135 -20.5t150.5 -44t140.5 -76t103 -117.5t39.5 -167.5q0 -182 -224 -305t-662 -172l-25 35q147 18 270 60.5t211 102.5t136.5 135t48.5 159q0 76 -31 134t-82 98t-119.5 61.5t-144.5 21.5h-12q-159 0 -287 -53 q-133 -55 -227.5 -153.5t-144.5 -233.5t-50 -293t56.5 -303t150.5 -257t221 -178.5t268 -66.5z" />
<glyph unicode="D" horiz-adv-x="2164" d="M1139 -6q-106 0 -227 10t-228 10q-53 0 -124 -3t-122 -7v19q25 12 51.5 34.5t50 51t39 61.5t15.5 66q3 125 3 237v56q-1 138 -1 294v140v121q0 60 -2 123t-6 139q-4 49 -29 94q84 -4 133 -8.5t74 -9.5t32 -10t7 -9q0 -8 -5 -29.5t-7 -36.5l-7.5 -135t-5.5 -119.5t-3 -120 t-1 -133.5q0 -154 4 -307t13 -307q0 -14 4 -35q61 -47 171.5 -62.5t274.5 -15.5q137 0 260 37t213 112t143.5 189.5t53.5 270.5q0 170 -60.5 333.5t-169 294.5t-262 211t-338.5 80q-184 0 -343.5 -46t-276.5 -119.5t-183.5 -164t-66.5 -176.5q0 -109 27.5 -154.5t74.5 -45.5 q49 0 72 27.5t23 66.5q0 84 -25 118.5t-53 55.5q29 0 60.5 -13.5t60 -37t47 -56t18.5 -73.5q0 -123 -72.5 -173.5t-158.5 -50.5q-43 0 -86 17.5t-79 53.5t-58.5 87t-22.5 119q0 133 88 254t233.5 213t335 146.5t389.5 54.5q227 0 418 -75t328 -199t214 -286.5t77 -338.5 q0 -203 -71 -359t-200 -262.5t-310 -161.5t-404 -57z" />
<glyph unicode="E" horiz-adv-x="1708" d="M1186 96q72 0 147.5 10.5t139.5 61.5q37 29 65 61l50 60l36 44q14 17 25 17q18 0 18 -18q0 -20 -13.5 -47t-31.5 -59l-36 -64q-17 -33 -25 -66q-8 -29 -26.5 -55.5t-96.5 -26.5h-310h-126q-50 0 -93 1t-86 1h-106q-53 0 -123 -6t-121 -10v33q25 12 51.5 39.5t48 61.5 t37 71t15.5 69q2 78 3 144.5t1 131.5v131v144q0 74 -3 164t-9 183l-10 184q-5 90 -7 168q-176 -76 -281.5 -189.5t-105.5 -222.5t27.5 -155t74.5 -46q49 0 72 28t23 67q0 84 -25 118.5t-53 55.5q29 0 60.5 -13.5t60 -37t47 -56.5t18.5 -74q0 -123 -72.5 -173t-158.5 -50 q-43 0 -86 17.5t-79 53.5t-58.5 87t-22.5 119q0 137 88 258t241.5 211t362.5 140q186 45 400 45q26 0 53 -1h86q31 0 65.5 -1t64.5 -5t50.5 -12.5t20.5 -24.5q0 -66 8 -104.5t8 -85.5q0 -18 -12 -19q-14 0 -20.5 18.5t-20.5 38.5q-25 35 -102 71t-255 36q-127 0 -248 -25 q-8 -29 -10 -65l-4 -72q-8 -125 -8 -260v-264q90 0 180 -4q45 -2 88.5 -2t85.5 2q59 2 119.5 22.5t112.5 96.5h14q-4 -51 -9 -85t-5 -90v-44v-32q0 -15 1 -33t3 -46h-15q-33 63 -103.5 85.5t-135.5 26.5q-78 6 -164 7.5t-172 1.5v-7q0 -154 4 -277.5t12 -277.5q2 -57 40 -93 t91.5 -55t116 -25.5t113.5 -6.5z" />
<glyph unicode="F" horiz-adv-x="1529" d="M717 10q-53 0 -106.5 -3t-104.5 -7v16q49 25 83 72t36 111l4 321q1 83 1 169.5t-1 176.5q0 74 -3 164t-9 183l-10 184q-5 90 -7 168q-176 -76 -281.5 -189.5t-105.5 -222.5t27.5 -155t74.5 -46q49 0 72 28t23 67q0 84 -25 118.5t-53 55.5q29 0 60.5 -13.5t60 -37 t47 -56.5t18.5 -74q0 -123 -72.5 -173t-158.5 -50q-43 0 -86 17.5t-79 53.5t-58.5 87t-22.5 119q0 137 88 258t241.5 211t362.5 140q186 45 400 45q26 0 53 -1h86q31 0 65.5 -1t64.5 -5t50.5 -12.5t20.5 -24.5q0 -66 8 -104.5t8 -86.5q0 -18 -12 -18q-14 0 -20.5 18.5 t-20.5 38.5q-25 35 -102 71t-255 36q-127 0 -248 -25q-8 -29 -10 -65l-4 -72q-8 -125 -8 -260v-264q90 0 180 -4q45 -2 88.5 -2t85.5 2q59 2 119.5 22.5t112.5 95.5h14q-4 -51 -9 -84.5t-5 -89.5v-44v-32q0 -15 1 -33t3 -46h-15q-33 63 -103.5 85.5t-135.5 26.5 q-78 6 -164 7.5t-172 1.5v-7q0 -78 1 -162.5t3 -171.5t5 -170t7 -157q2 -63 32 -114.5t91 -80.5v-16q-59 4 -116.5 7t-114.5 3z" />
<glyph unicode="G" horiz-adv-x="1685" d="M926 78q78 0 179 30.5t200 67.5q37 14 44 54t9 81q-2 68 -3 134.5t-5 125.5q-2 43 -7.5 76t-17.5 58.5t-34.5 49t-59.5 48.5v14l107 -8q56 -4 112 -4q53 0 96 5t99 9l-3 -14q-31 -16 -48 -44t-25 -60.5t-10 -68.5l-5 -69q-2 -53 -4 -98t-3 -89t-1 -91v-105 q0 -12 -4 -36.5t-16 -30.5q-33 -14 -77 -26.5t-83 -29.5q-109 -43 -221.5 -60t-243.5 -17q-178 0 -334.5 67.5t-273.5 185t-184.5 275.5t-67.5 336t64.5 340t182.5 282.5t282.5 192.5t365.5 72q33 0 94.5 -5.5t135 -20.5t150.5 -44t140.5 -76t103 -117.5t39.5 -167.5 q0 -182 -224 -305t-662 -172l-25 35q147 18 270 60.5t211 102.5t136.5 135t48.5 159q0 76 -31 134t-82 98t-119.5 61.5t-144.5 21.5h-12q-159 0 -287 -53q-133 -55 -227.5 -153.5t-144.5 -233.5t-50 -293t51 -306.5t142.5 -262t213.5 -182t263 -68.5z" />
<glyph unicode="H" horiz-adv-x="2320" d="M752 944v-119q0 -68 1 -135t3 -135q201 158 448.5 269.5t528.5 187.5q-2 115 -7.5 227.5t-9.5 220.5q-4 63 -23.5 121.5t-95.5 110.5v14q51 -4 107.5 -8t112.5 -4q51 0 106 5t111 7v-14q-63 -33 -86 -103.5t-27 -136.5q-6 -94 -7 -193.5t-1 -201.5l181 38.5t185 32.5 l-12 -36q-92 -18 -181 -42t-173 -51v-172q0 -154 4 -307t12 -307q4 -66 33 -117t90 -78v-16q-59 4 -116.5 7t-114.5 3q-53 0 -106.5 -3t-104.5 -7v16q49 25 82.5 71t36.5 112q4 156 4 310v310v117q-283 -106 -524.5 -256t-446.5 -332q2 -35 3 -69.5t3 -69.5 q2 -63 31.5 -114.5t91.5 -80.5v-16q-59 4 -116.5 7t-115.5 3q-53 0 -106 -3t-104 -7v16q49 25 82.5 72t35.5 111q2 156 3 310.5t1 309.5v217v31q0 88 -1 172t-7 193q-4 49 -28 94q84 -4 133 -8.5t73.5 -9.5t31.5 -10t7 -9q0 -8 -5 -29.5t-7 -36.5q-4 -70 -7 -129t-5 -115.5 t-3 -112.5t-1 -122zM287 879q-43 0 -86 17t-79 53t-58.5 87t-22.5 119q0 90 43 189.5t119 182.5t176 136t213 53q16 0 75.5 -3t117 -20.5t89.5 -56.5q15 -18 16 -44q0 -29 -20 -66q-14 2 -29.5 15t-42 28.5t-70.5 29t-116 13.5q-100 0 -175 -41t-125 -100.5t-74.5 -129 t-24.5 -127.5q0 -109 27.5 -154.5t74.5 -45.5q49 0 72 27.5t23 66.5q0 84 -25 119t-53 55q29 0 60.5 -13.5t60 -37t47 -56t18.5 -73.5q0 -123 -72.5 -173t-158.5 -50z" />
<glyph unicode="I" horiz-adv-x="929" d="M655 10q-53 0 -106 -3t-105 -7v16q49 25 83 72t36 111q2 78 3 168t1 182v182v168v158q0 90 -1 173t-7 191q-4 49 -29 95q84 -4 133.5 -8.5t74 -9.5t31.5 -10t7 -9q0 -8 -5 -30t-7 -36q-4 -74 -7 -135t-5 -119.5t-3 -120t-1 -133.5q0 -78 1 -167t3 -180t5 -181t7 -166 q2 -63 31.5 -114.5t91.5 -80.5v-16q-59 4 -117 7t-115 3zM287 823q-43 0 -86 17.5t-79 53.5t-58.5 87t-22.5 119q0 90 43 189.5t119 182t176 136t213 53.5q16 0 75.5 -3t117 -20.5t89.5 -56.5q15 -18 16 -44q0 -29 -20 -67q-14 2 -29.5 15.5t-42 29t-70.5 28.5t-116 13 q-100 0 -175 -40.5t-125 -100t-74.5 -129t-24.5 -127.5q0 -106 27.5 -153.5t74.5 -47.5q49 0 72 28t23 67q0 82 -25 116.5t-53 57.5q29 0 60.5 -13.5t60 -37t47 -56.5t18.5 -73q0 -123 -72.5 -173.5t-158.5 -50.5z" />
<glyph unicode="J" horiz-adv-x="929" d="M559 1421q-4 49 -29 95q84 -4 133.5 -8.5t74 -9.5t31.5 -10t7 -9q0 -8 -5 -30t-7 -36q-4 -74 -7 -135t-5 -119.5t-3 -120t-1 -133.5v-75q0 -42 2 -111q0 -203 -11.5 -372t-64.5 -288q-39 -88 -108.5 -139t-139.5 -84q-53 -25 -99 -42t-94 -17q-12 0 -27.5 4t-15.5 14 q0 4 1.5 8t11.5 9q96 39 172 84t117 153q27 68 42 152t22 173t9 181t2 174v170v158q0 90 -1 172.5t-7 191.5zM287 823q-43 0 -86 17.5t-79 53.5t-58.5 87t-22.5 119q0 90 43 189.5t119 182t176 136t213 53.5q16 0 75.5 -3t117 -20.5t89.5 -56.5q15 -18 16 -44q0 -29 -20 -67 q-14 2 -29.5 15.5t-42 29t-70.5 28.5t-116 13q-100 0 -175 -40.5t-125 -100t-74.5 -129t-24.5 -127.5q0 -106 27.5 -153.5t74.5 -47.5q49 0 72 28t23 67q0 82 -25 116.5t-53 57.5q29 0 60.5 -13.5t60 -37t47 -56.5t18.5 -73q0 -123 -72.5 -173.5t-158.5 -50.5z" />
<glyph unicode="K" horiz-adv-x="2088" d="M737 831q0 -68 2 -147l4 -162l5 -162q2 -80 6 -145q4 -63 32.5 -114.5t90.5 -80.5v-16q-59 4 -117 7t-115 3q-53 0 -106.5 -3t-104.5 -7v16q49 25 83 72t36 111q4 156 4 310v310v252v158v14q0 43 -2 90t-6 103q-4 49 -29 94q84 -4 133 -8t74 -9.5t32 -10.5t7 -9 q0 -8 -5 -29.5t-7 -35.5q-4 -84 -9.5 -152t-7.5 -133q-1 -23 -1 -45.5t1 -45.5t1 -46.5t-1 -46.5q150 100 271.5 226t224.5 259q35 47 58.5 98t23.5 96q0 16 -4 31t-11 29l13 14q47 -4 99 -8t108 -4q53 0 111 4l118 8l-12 -14q-94 -33 -182.5 -103.5t-153.5 -136.5 l-233 -243q-138 -150 -339 -312q158 -6 274 -34.5t195.5 -76.5t130 -113t76.5 -144l60 -174q29 -82 60.5 -144.5t70.5 -98.5t94 -36q106 0 153.5 26.5t73.5 86.5l31 -23q-16 -113 -84 -174t-174 -61q-178 0 -303 126t-227 400q-23 59 -68 122.5t-110.5 116t-153 87 t-191.5 38.5zM287 881q-43 0 -86 17t-79 53t-58.5 87.5t-22.5 118.5q0 90 43 189.5t119 182.5t176 136t213 53q16 0 75.5 -3t117 -20.5t89.5 -56.5q15 -18 16 -43q0 -29 -20 -67q-14 2 -29.5 15t-42 28.5t-70.5 29t-116 13.5q-100 0 -175 -41t-125 -100.5t-74.5 -129 t-24.5 -126.5q0 -106 27.5 -153.5t74.5 -47.5q49 0 72 27.5t23 66.5q0 82 -25 117t-53 57q29 0 60.5 -13.5t60 -37t47 -56t18.5 -73.5q0 -123 -72.5 -173t-158.5 -50z" />
<glyph unicode="L" horiz-adv-x="1593" d="M655 12q-53 0 -118 -5l-117 -9l-2 22q25 12 50.5 41t46 65t34.5 74t14 70q2 156 3 315.5t1 315.5v139v122q0 60 -2 123t-6 138q-4 49 -29 95q84 -4 133.5 -8.5t74 -9.5t31.5 -10t7 -9q0 -8 -5 -29.5t-7 -36.5q-4 -74 -7 -135t-5 -119.5t-3 -120t-1 -133.5 q0 -154 4 -317.5t12 -317.5q2 -57 28.5 -94t67.5 -58.5t92.5 -29.5t102.5 -8q72 0 165 21.5t156 72.5q37 29 61.5 63.5t43.5 65.5l31 51q13 20 26 21q10 0 12 -10.5t2 -16.5q0 -20 -11 -50t-27 -66l-31 -71q-16 -36 -25 -69q-8 -29 -26.5 -55.5t-55.5 -28.5 q-63 -2 -131.5 -7t-132.5 -5q-76 0 -133 2t-108.5 5t-102 5t-113.5 2zM287 829q-43 0 -86 17.5t-79 53.5t-58.5 87t-22.5 119q0 90 43 189.5t119 182.5t176 136t213 53q16 0 75.5 -3t117 -20.5t89.5 -56.5q15 -18 16 -44q0 -29 -20 -66q-14 2 -29.5 15t-42 28.5t-70.5 29 t-116 13.5q-100 0 -175 -41t-125 -100.5t-74.5 -129t-24.5 -127.5q0 -109 27.5 -154.5t74.5 -45.5q49 0 72 27.5t23 66.5q0 84 -25 118.5t-53 55.5q29 0 60.5 -13.5t60 -37t47 -56t18.5 -73.5q0 -123 -72.5 -173.5t-158.5 -50.5z" />
<glyph unicode="M" horiz-adv-x="2414" d="M2017 1454l181 -1231q12 -78 62 -131t114 -80v-14q-113 18 -226 18q-121 0 -241 -18v12q0 14 15 23.5t32.5 22t31 34t7.5 60.5l-142 1038h-12l-274 -660q0 -33 -28 -102.5t-77 -147t-114.5 -149.5t-141.5 -106l-43 45q47 43 84 82.5t63.5 95t40 135.5t13.5 201 q0 233 -40 418.5t-124 315.5t-214 198.5t-308 68.5q-88 0 -173 -30.5t-150.5 -85t-103.5 -127.5q-34 -66 -34 -142v-16q4 -109 34 -157t77 -54q10 -1 18 -1q37 0 54 20q20 23 20 56q0 82 -31 128q-27 39 -55 59q29 -2 61.5 -17.5t62 -42t50 -61.5t22.5 -76q1 -11 1 -21 q0 -47 -15 -81q-18 -41 -50 -63.5t-74 -29.5q-27 -5 -55 -5q-16 0 -32 2q-43 6 -87 27.5t-82 60.5t-63.5 92t-27.5 121q-1 14 -1 27q0 115 48 210q53 106 148.5 180t225.5 113t279 39q211 0 366 -82t255 -213t147 -294q43 -150 44 -298q0 -13 -1 -26l279 663l100 240 q53 0 99.5 3t101.5 7v-14q-63 -33 -95 -106q-24 -55 -24 -103q0 -16 2 -31zM319 12q72 23 115 98.5t58 165.5l176 1252q49 -20 77 -62q18 -26 19 -78q0 -30 -6 -69l-152 -1090q-2 -10 -2 -21v-22q0 -59 25.5 -102t87.5 -68l6 -16q-20 4 -51 6t-65 3l-64 2q-31 1 -51 1 q-92 0 -183 -12z" />
<glyph unicode="N" horiz-adv-x="2076" d="M1679 1714q37 -2 70 -10t70 -8q53 0 107 4l110 8v-14q-63 -33 -86 -103.5t-27 -136.5q-9 -134 -9 -283v-30q1 -166 1 -312q0 -33 -2 -99q-1 -22 -1 -45q0 -45 3 -91q10 -59 14 -139q3 -53 3 -99q0 -23 -1 -43q-2 -109 -28.5 -196.5t-83 -139t-146.5 -54.5h-8 q-88 0 -213 61l14 47q38 -21 72 -21q42 0 76 32q61 58 61 267q0 113 -19.5 253t-63.5 285.5t-115.5 284t-177 246t-248 173t-326.5 65.5q-115 0 -223.5 -41t-193.5 -111.5t-137 -167t-52 -206.5q0 -55 14 -90t37 -55.5t48.5 -29t49.5 -8.5q49 0 71.5 30t22.5 69 q-2 80 -26.5 114.5t-50.5 57.5q27 -2 59.5 -15.5t60 -36t47 -56.5t19.5 -75q0 -121 -73 -172q-70 -49 -152 -49h-6q-43 0 -91.5 18.5t-90.5 52.5t-69.5 86t-27.5 120q0 170 66.5 294.5t175 207.5t246 124t276.5 41q236 0 413 -76.5t308 -201.5t218 -285t140 -326 q0 154 -4 319t-12 318q-2 59 -17.5 120t-91.5 112v16zM584 825v678q14 20 44.5 29.5t67.5 9.5v-148q0 -101 -1 -213t-1 -210v-142q0 -154 4 -307t13 -307q2 -63 31.5 -114.5t91.5 -80.5v-16q-59 4 -117 7t-115 3h-43q-16 0 -29.5 -1t-29 -3t-39.5 -4v17q49 25 83 70.5 t36 111.5q2 156 3 310t1 310z" />
<glyph unicode="O" horiz-adv-x="1802" d="M743 836q-43 0 -86 17t-78.5 53t-58 87t-22.5 119q0 90 43 189.5t118.5 182.5t175 136t214.5 53q170 0 302 -70.5t223 -186.5t139 -264t48 -304q0 -190 -67.5 -350t-184 -276t-273.5 -179t-335 -63t-334.5 67.5t-273.5 185t-184.5 275.5t-67.5 336q0 174 64.5 327.5 t175 270.5t261 187.5t322.5 78.5q-45 -78 -86 -97.5t-82 -31.5q-201 -63 -320.5 -244.5t-119.5 -437.5q0 -158 48 -305.5t133 -261t204 -181t260 -67.5t263 48t210 138t139.5 218t51.5 286q0 147 -36 290.5t-101.5 255.5t-156.5 181.5t-202 69.5q-100 0 -175 -41 t-125 -100.5t-74.5 -129t-24.5 -127.5q0 -106 27.5 -153t74.5 -47q49 0 71.5 27.5t22.5 66.5q0 82 -25.5 117t-52.5 57q27 0 60 -13.5t61.5 -37t47 -56t18.5 -73.5q0 -123 -73 -173t-159 -50z" />
<glyph unicode="P" horiz-adv-x="1640" d="M1235 1544q-33 20 -102.5 42t-186.5 22q-184 0 -322.5 -48.5t-229.5 -124t-136 -167.5t-45 -178q0 -106 27.5 -153.5t74.5 -47.5q49 0 72 27.5t23 66.5q0 82 -25 117t-53 57q29 0 60.5 -13.5t60 -37t47 -56t18.5 -73.5q0 -123 -72.5 -173t-158.5 -50q-43 0 -86 23.5 t-79 65.5t-58.5 99t-22.5 125q0 131 66.5 245.5t186.5 200.5t287 135.5t365 49.5q33 0 93.5 -4t128 -14.5t129 -26t98.5 -37.5q102 -63 153 -169t51 -208q0 -121 -66.5 -230.5t-156.5 -172.5q-90 -61 -186 -74.5t-184 -13.5q-20 0 -49 2t-57 8t-49.5 15t-27.5 24q-4 8 -4 14 q0 18 10 18q39 0 84 -11t84 -11q78 2 163 32.5t140 90.5q55 59 75 145t20 178q2 80 -41 160t-119 131zM809 1444q23 -8 22 -17q0 -8 -5 -29.5t-7 -35.5q-4 -74 -7 -135.5t-5 -119.5t-3 -119.5t-1 -133.5q0 -154 4 -325t12 -324q4 -66 33 -117t90 -78v-16q-59 4 -116.5 7 t-114.5 3q-53 0 -106.5 -3t-104.5 -7v16q49 25 82.5 71t35.5 112q4 156 5 327v328v158q0 88 -1 172t-8 192q-4 49 -28 94q102 -4 151 -9t72 -11z" />
<glyph unicode="Q" horiz-adv-x="1871" d="M791 846q-43 0 -86 17.5t-79 53t-58.5 87t-22.5 118.5q0 90 43 189.5t118.5 182.5t176 136t213.5 53q170 0 302 -70.5t223 -186t139 -264t48 -304.5q0 -150 -42 -281t-117.5 -236t-180 -182t-229.5 -120q172 -55 341 -123t340 -128t348 -101t364 -41q92 0 178 24.5 t164 87.5q18 14 28 15q6 0 7 -4q0 -10 -23 -29q-125 -111 -280.5 -173.5t-315.5 -62.5q-131 0 -252 25t-234.5 67t-221.5 95l-212 108q-119 66 -243.5 121t-272.5 70q-178 18 -335.5 81.5t-275.5 172t-186.5 261t-68.5 349.5q0 174 64.5 327.5t175 270.5t261 187.5 t322.5 78.5q-45 -76 -87 -96t-81 -33q-199 -63 -319.5 -244.5t-120.5 -437.5q0 -158 48 -305t133 -261t204 -181.5t260 -67.5t262 48t211 138.5t140.5 218.5t50.5 285q0 147 -36 291t-101.5 255.5t-156.5 181t-202 69.5q-100 0 -175 -41t-125 -100.5t-74.5 -129 t-24.5 -126.5q0 -109 27.5 -155t74.5 -46q49 0 71.5 27.5t22.5 66.5q0 84 -24.5 119t-52.5 55q29 0 60.5 -13t60 -36.5t47 -56.5t18.5 -74q0 -123 -72.5 -173t-158.5 -50z" />
<glyph unicode="R" horiz-adv-x="1978" d="M860 768h-12q-18 23 -19 45q0 20 21 47h106q233 0 317.5 98.5t82.5 292.5q2 80 -38 165t-116 136q-53 35 -122.5 44.5t-133.5 9.5q-184 0 -322.5 -48.5t-229.5 -124t-136 -167.5t-45 -179q0 -109 27.5 -154.5t74.5 -45.5q49 0 72 27.5t23 66.5q0 84 -25 119t-53 55 q29 0 60.5 -13.5t60 -37t47 -56t18.5 -73.5q0 -123 -72.5 -173t-158.5 -50q-43 0 -86 23.5t-79 65.5t-58.5 99t-22.5 125q0 123 63.5 236.5t177 200.5t271.5 140.5t346 53.5q111 0 185.5 -5t125 -14.5t85 -24t67.5 -34.5q102 -63 150.5 -171t48.5 -210q0 -119 -54.5 -224.5 t-144.5 -168.5q-47 -31 -96 -45q-16 -8 -41 -15q113 -41 175 -111.5t91 -162.5l49 -155q23 -73 49.5 -128t59 -86.5t77.5 -31.5q86 0 125 24.5t62 75.5l24 -21q-12 -98 -68.5 -153t-142.5 -55q-147 0 -250.5 110.5t-185.5 353.5q-18 51 -56 107.5t-91 103.5t-125 79t-158 34 zM774 1384q23 -8 23 -16t-5.5 -29.5t-7.5 -35.5q-4 -74 -7 -135.5t-5 -120t-3 -120t-1 -132.5q0 -154 4 -325t12 -325q2 -63 32 -114t91 -80v-17q-59 4 -116.5 7.5t-114.5 3.5q-53 0 -106.5 -3t-104.5 -8v17q49 25 83 72t36 110q2 156 3 328t1 327v158q0 90 -1 173t-7 192 q-4 49 -29 94q100 -4 151.5 -9.5t71.5 -11.5z" />
<glyph unicode="S" horiz-adv-x="1157" d="M584 -14q-84 0 -179.5 28.5t-176.5 89t-134 154.5t-53 227q0 68 22.5 119t58.5 87t79 53.5t86 17.5q86 0 158.5 -50t72.5 -173q0 -41 -18.5 -74t-47 -56.5t-60.5 -37t-60 -13.5q29 23 53.5 58t24.5 116q0 39 -22.5 67t-72.5 28q-47 0 -74.5 -47.5t-27.5 -153.5 q0 -86 45 -151.5t109.5 -108.5t134 -64.5t121.5 -21.5q51 0 107 18.5t104.5 56.5t79 94t30.5 130q0 100 -52 175t-131 139.5t-171 124t-171 126t-131 147t-52 187.5q0 78 25.5 153.5t79.5 137t137 100.5t196 39q66 0 132 -17.5t132 -17.5q29 0 47.5 11.5t50.5 11.5 q12 0 13 -19q0 -76 9 -146.5t9 -141.5q0 -8 -4 -21.5t-12 -13.5q-10 0 -22.5 19.5t-27 46t-32 55t-37.5 47.5q-59 51 -140 73.5t-143 22.5q-47 0 -93 -19.5t-82 -51t-58.5 -73.5t-22.5 -88q0 -88 53.5 -159.5t132 -136t172 -127t173.5 -134t134 -158.5t56 -200v-11 q0 -84 -30 -166q-32 -87 -97 -155.5t-165.5 -110.5t-237.5 -42z" />
<glyph unicode="T" horiz-adv-x="1599" d="M739 10q-53 0 -106 -3t-105 -7v16q49 25 83 72t36 111q4 156 4 310v310v158q0 88 -1 172t-7 192q-4 49 -29 95q84 -4 133.5 -8.5t74 -9.5t31.5 -10t7 -9q0 -8 -5 -29.5t-7 -36.5q-4 -74 -7 -135t-5 -119.5t-3.5 -120t-1.5 -133.5q0 -154 4.5 -307t12.5 -307 q4 -63 32.5 -114.5t90.5 -80.5v-16q-59 4 -117 7t-115 3zM1327 1413q-43 8 -70.5 22.5l-52.5 28.5l-50 29q-26 14 -60 25q-78 23 -155 30.5t-148 7.5q-133 0 -245 -25.5t-192 -72.5t-125 -114.5t-45 -153.5q0 -49 34 -77t61 -28q43 0 87 44.5t44 107.5q0 33 -10.5 55.5 t-20.5 40.5q43 -18 81 -68.5t38 -109.5q0 -53 -21.5 -91t-52.5 -62.5t-66.5 -37t-64.5 -12.5q-94 0 -173 65.5t-79 188.5q0 111 62.5 196t165 142.5t233.5 87t268 29.5q195 0 389 -55l72 -22q37 -11 78 -11q76 0 125 14.5t125 22.5q-134 -76 -232 -197z" />
<glyph unicode="U" horiz-adv-x="1767" d="M999 -23q-94 0 -196.5 13.5t-189.5 66t-145 153.5t-60 277q0 8 -1 17q0 131 31 266q33 143 85 271t119 233.5t132 169.5l45 10l-85 -225q-40 -109 -70.5 -218.5t-46.5 -228.5q-12 -94 -12 -200q0 -28 1 -58q4 -150 41 -237.5t95.5 -134t130 -60.5t147.5 -14 q109 0 193.5 16.5t143 68.5t91.5 150.5t39 259.5q3 72 3 121v23q-1 53 -1 98q0 154 2 319q1 41 0 81q0 122 -4 239q-4 86 -26.5 135t-106.5 97v14q39 -2 77.5 -6t77.5 -4q51 0 106.5 5t110.5 7v-14q-63 -33 -85.5 -82.5t-26.5 -157.5q-6 -147 -7 -314t-1 -311q0 -45 -1 -90 t-1 -90q0 -233 -45.5 -367.5t-126 -200t-191.5 -82t-242 -16.5zM246 924q-76 12 -140.5 80.5t-64.5 177.5q0 88 47 182t126 171t181.5 126t214.5 49q-6 0 46.5 -4t118 -19.5t120.5 -48t55 -92.5q0 -37 -28 -73q-10 2 -29 22.5t-53.5 44t-88 43t-135.5 19.5 q-104 0 -180 -44.5t-125 -108t-72.5 -136t-23.5 -129.5q0 -61 20.5 -92t57.5 -39q12 -2 23 -2q33 0 53 18q27 25 32 64q2 14 3.5 27.5t1.5 23.5q0 53 -17.5 81.5t-36.5 51.5q27 -6 56.5 -23.5t54 -45t38.5 -63.5q9 -25 9 -52q0 -12 -2 -25q-16 -104 -78.5 -146t-134.5 -42 q-12 0 -24.5 1t-24.5 3z" />
<glyph unicode="V" horiz-adv-x="1964" d="M700 809q-47 121 -103 250l-114 256q-6 11 -5 26q0 29 20 71q31 65 127 153q0 -59 22 -121l122 -316l124 -309l105 -250l108 -250h20l88 218l89 219q61 154 127 339l120 339q10 29 20.5 64.5t10.5 70.5q0 41 -20.5 72.5t-79.5 44.5l6 14q47 -4 102.5 -8t110.5 -4 q53 0 109 4l114 8l-6 -14q-78 -33 -128 -104t-83 -136q-70 -147 -136 -313l-124 -312l-65 -155l-75 -177l-93 -217l-111 -278q-10 -23 -25 -23q-16 0 -28 31q-31 78 -77 184l-95 220l-97 219zM287 874q-43 0 -86 17.5t-79 53.5t-58.5 87t-22.5 119q0 90 43 189.5t119 182.5 t176 136t213 53q16 0 75.5 -3t117 -20.5t89.5 -56.5q15 -18 16 -44q0 -29 -20 -66q-14 2 -29.5 15t-42 28.5t-70.5 29t-116 13.5q-100 0 -175 -41t-125 -100.5t-74.5 -129t-24.5 -127.5q0 -109 27.5 -154.5t74.5 -45.5q49 0 72 27.5t23 66.5q0 84 -25 118.5t-53 55.5 q29 0 60.5 -13.5t60 -37t47 -56t18.5 -73.5q0 -123 -72.5 -173.5t-158.5 -50.5z" />
<glyph unicode="W" horiz-adv-x="2609" d="M2341 1696q53 0 111 4l116 8l-6 -14q-78 -33 -131 -103.5t-82 -136.5l-136 -317l-130 -312l-66 -155l-77 -176l-92 -218l-113 -280q-10 -23 -27 -23q-16 0 -29 31l-58 141l-73 167l-79 176l-74 169l-118 -274l-159 -385q-10 -23 -26 -23t-29 31l-77 185l-96 221l-98 219 l-81 184l-61 143l-55 135l-57 134l-65 145q14 53 44 101.5t118 72.5l8 -46q4 -24 14 -46l120 -317l128 -312l109 -251l108 -250h21l89 220l89 218q2 4 5 12t14.5 36t31.5 83l58 156l74 204q36 102 71 191q10 27 20.5 62.5t10.5 70.5q0 41 -21.5 73.5t-83.5 45.5l6 14l107 -8 q55 -4 110 -4q53 0 110.5 5t117.5 7l-6 -14q-78 -33 -129.5 -104.5t-83.5 -135.5q-63 -133 -124 -280l-116 -283l15 -36l14 -34l106 -251l111 -250h20l89 220l89 218l129 341l125 341q10 29 20.5 63.5t10.5 69.5q0 41 -21.5 73.5t-82.5 45.5l6 14l106 -8q56 -4 111 -4z M287 897q-43 0 -86 17.5t-79 53.5t-58.5 87t-22.5 119q0 90 43 189t119 182t176 136.5t213 53.5q16 0 75.5 -3t117 -20.5t89.5 -56.5q15 -18 16 -44q0 -29 -20 -67q-14 2 -29.5 15.5t-42 29t-70.5 28.5t-116 13q-100 0 -175 -41t-125 -100t-74.5 -129t-24.5 -127 q0 -106 27.5 -153.5t74.5 -47.5q49 0 72 27.5t23 66.5q0 82 -25 117t-53 57q29 0 60.5 -13t60 -36.5t47 -56.5t18.5 -74q0 -123 -72.5 -173t-158.5 -50z" />
<glyph unicode="X" horiz-adv-x="1691" d="M1413 1698q53 0 110.5 5t114.5 7l-10 -14q-84 -33 -168 -99.5t-133 -132.5l-188 -254l-185 -256l40 -64l38 -63l188 -304l193 -304q45 -63 97.5 -118.5t129.5 -82.5l11 -16q-63 4 -122 7t-116 3q-53 0 -110.5 -3t-104.5 -7v16q23 16 23 48q0 27 -14.5 61.5t-39.5 75.5 q-88 147 -163.5 291.5t-163.5 291.5l-186 -283q-91 -144 -169 -288q-35 -66 -35 -114q0 -57 48 -85v-14q-57 4 -118 9t-118 5q-53 0 -110.5 -5t-110.5 -9l14 21q66 25 132.5 70.5t111.5 111.5l430 620q12 16 23.5 34t23.5 34l-179 277l-183 276q6 18 17 41.5t30.5 42 t49.5 29.5q15 5 33.5 5t41.5 -5q23 -47 61 -112l83 -133l87 -136l74 -117l133 205l127 198q27 39 46.5 81t19.5 81q0 37 -25 70v14q47 -4 106.5 -8t114.5 -4zM289 887q-43 0 -86 17.5t-79 53t-58.5 87t-22.5 118.5q0 90 43 189.5t119 182.5t175 136t214 53q16 0 75.5 -3 t117 -20.5t90.5 -55.5q15 -18 15 -44q0 -29 -20 -67q-14 2 -29.5 15.5t-42 28.5t-70.5 28.5t-116 13.5q-100 0 -174.5 -41t-125 -100.5t-75 -129t-24.5 -126.5q0 -109 27.5 -155t74.5 -46q49 0 72 27.5t23 66.5q0 84 -26 119t-52 55q27 0 59.5 -13t61 -36.5t47 -56.5 t18.5 -74q0 -123 -72.5 -173t-158.5 -50z" />
<glyph unicode="Y" horiz-adv-x="1734" d="M1491 1692q55 0 98 10t105 12l-19 -14q-90 -39 -157.5 -120t-118.5 -159l-200 -295l-195 -297q-3 -84 -4 -168q0 -70 2 -141q5 -156 14 -311q4 -66 32.5 -117t90.5 -78v-16q-59 4 -116.5 7t-115.5 3q-53 0 -106 -3t-105 -7v16q49 25 83 71t36 112q4 141 4 281v282 l-187 329q-93 171 -196 322q-12 20 -7 48t25.5 54.5t55.5 49t82 30.5q-2 -45 26 -97l60 -107l122 -220q62 -113 136 -217q76 96 151.5 204t139.5 220l33 54q18 31 34.5 63.5t27.5 62t11 52.5q0 45 -24 80l-6 18q51 -4 91 -9t97 -5zM287 899q-43 0 -86 17.5t-79 53.5 t-58.5 87t-22.5 119q0 90 43 189t119 182t176 136.5t213 53.5q16 0 75.5 -3t117 -20.5t89.5 -56.5q15 -18 16 -44q0 -29 -20 -67q-14 2 -29.5 15.5t-42 29t-70.5 28.5t-116 13q-100 0 -175 -41t-125 -100t-74.5 -129t-24.5 -127q0 -109 27.5 -155t74.5 -46q49 0 72 28t23 66 q0 84 -25 119t-53 56q29 0 60.5 -13.5t60 -37t47 -56.5t18.5 -74q0 -123 -72.5 -173t-158.5 -50z" />
<glyph unicode="Z" horiz-adv-x="1751" d="M797 6q-135 -2 -214 -4t-145.5 -3t-145.5 -2t-214 -1q-8 0 -22.5 1t-14.5 21q0 70 57.5 187t201.5 301t389 449.5t622 631.5l-4 6q-49 4 -116 5t-132 1h-119h-78q-332 0 -472 -108.5t-140 -286.5q0 -53 33.5 -73.5t62.5 -20.5q41 0 69.5 40t28.5 105q0 35 -10 58.5 t-24 44.5q45 -16 86 -66.5t41 -115.5q0 -53 -21.5 -92.5t-52.5 -64t-67 -35.5t-66 -11q-47 0 -92 16.5t-80 49t-57.5 80.5t-22.5 110q0 115 47 203t149.5 147t263.5 89q141 26 332 26h54q18 0 72.5 -1t127 -2t154.5 -1t153.5 -1t126.5 -1h70q23 0 23 -21q0 -8 -4.5 -16.5 t-6.5 -10.5q-330 -352 -641 -719.5t-583 -762.5q-12 -16 -13 -23q0 -29 85 -35q42 -3 117.5 -3t182.5 3q37 2 137.5 5.5t219.5 14.5t229.5 33.5t165.5 59.5q78 53 106.5 91t47.5 38q16 0 16 -18q0 -20 -15.5 -46t-35 -54.5t-38.5 -60.5t-28 -65q-8 -29 -35.5 -66.5 t-105.5 -37.5q-31 0 -125 2t-201.5 4t-201.5 4t-127 2z" />
<glyph unicode="\" horiz-adv-x="563" d="M41 1647h55l426 -1649h-55z" />
<glyph unicode="_" horiz-adv-x="659" d="M0 -57h680v-41h-680v41z" />
<glyph unicode="`" horiz-adv-x="411" d="M41 1696q27 -6 57.5 -8t55.5 -2q23 0 52.5 3t49.5 7l98 -170q23 -39 13.5 -65.5t-48.5 -26.5q-45 0 -88 30.5t-73 71.5z" />
<glyph unicode="a" horiz-adv-x="1394" d="M815 1020l397 -866q47 -106 150 -144v-10q-92 12 -182 12q-98 0 -193 -12v8q0 20 25.5 43t25.5 51q0 31 -14 56l-127 307q-53 4 -108.5 7t-110.5 3q-57 0 -114.5 -3t-112.5 -7l-148 -334q-8 -18 -14 -33.5t-6 -31.5q0 -27 30 -58v-8q-35 4 -67.5 6t-67.5 2 q-37 0 -73.5 -2t-71.5 -6l10 8q57 16 103.5 55t74.5 97l402 839q4 17 4 29q0 39 -36 81q-38 44 -89 75l-4 10q39 -2 96 -4t100 -2h45zM862 532v9l-174 403h-4l-192 -403v-9q45 -2 91 -3t93 -1q45 0 92 1t94 3z" />
<glyph unicode="b" horiz-adv-x="1036" d="M221 1176q82 0 157 1t146 3q39 0 93.5 -13.5t102.5 -44t82 -81t32 -123.5q0 -94 -57.5 -162t-129.5 -107q59 -12 120.5 -32.5t104.5 -49.5q68 -47 100 -109.5t32 -129.5q0 -70 -45.5 -151t-133.5 -128q-61 -33 -140 -40t-148 -7q-31 0 -76 1l-91 2q-46 1 -86 2t-61 1 q-41 0 -95 -2t-95 -6v12q39 18 74.5 66.5t37.5 93.5q6 109 7.5 201t1.5 200q0 106 -4 224l-9 223q-2 43 -20.5 82t-83.5 69v13q41 -4 90 -6t94 -2zM301 193q0 -76 48 -101.5t198 -25.5q68 0 126 15t95 42q47 35 61.5 82t14.5 84q0 57 -21.5 111.5t-66.5 97.5t-116 69.5 t-169 26.5q-10 0 -32.5 1t-49.5 2t-51 1h-41q0 -82 2 -172t2 -176v-57zM307 1016q-4 -33 -5 -61.5t-1 -57.5q0 -55 3 -109.5t3 -119.5q35 0 87 -2t79 -2q35 0 72 13t66.5 43t49 79t19.5 119q0 61 -22.5 102t-57.5 64.5t-78 32.5t-84 9q-31 0 -59.5 -3t-59.5 -5 q-12 -23 -11 -49t-1 -53z" />
<glyph unicode="c" horiz-adv-x="1320" d="M1212 958q-6 0 -16 14.5t-28.5 35t-46 44t-66.5 40.5q-59 27 -128 38t-141 11h-13q-125 0 -227 -37q-108 -39 -183.5 -107.5t-115.5 -163t-40 -204.5q0 -111 45 -213.5t122 -180t179 -123.5t215 -46q49 0 109.5 7t122 21.5t118 38t94.5 55.5q25 20 42.5 43t21.5 23 q12 0 12 -8q0 -14 -23 -56l-40 -71q-18 -37 -62 -53q-102 -45 -206.5 -62.5t-231.5 -17.5q-143 0 -269 47t-220.5 129t-148.5 192.5t-54 235.5q0 127 52 239.5t147.5 197.5t227.5 135t294 50q63 0 138 -9t144 -19l64 -13q31 -6 63 -6q12 0 21.5 4.5t19.5 4.5q8 0 11.5 -19.5 t3.5 -48.5t3 -63.5t3 -59.5q0 -8 -2.5 -16.5t-10.5 -8.5z" />
<glyph unicode="d" horiz-adv-x="1441" d="M702 1194q145 0 273.5 -38t224.5 -108.5t152.5 -171t56.5 -225.5q0 -141 -56.5 -261t-159.5 -207t-249.5 -137t-327.5 -50q-84 0 -182 7t-184 7q-43 0 -99.5 -2t-99.5 -6v14q41 16 83 59.5t44 88.5v139v272q0 109 -3 226t-7 223q-4 41 -40 81t-95 75v8q41 -4 105.5 -6 t109.5 -2q66 0 116 2t100 5t106 5t132 2zM702 1124q-57 0 -114.5 -1t-106.5 -4t-86 -9t-55 -16q-6 -18 -7 -39t-1 -37q-4 -57 -5 -118.5t-1 -125.5v-192q0 -106 3 -215t11 -215q0 -18 2 -25q49 -33 138 -44t222 -11q111 0 209.5 41t171 112.5t114.5 167.5t42 205 q0 111 -41 219.5t-117 179.5q-72 70 -171 98.5t-208 28.5z" />
<glyph unicode="e" horiz-adv-x="1046" d="M248 12q-45 0 -100.5 -4t-96.5 -8v23q20 8 42 27.5t39.5 43t29.5 50t12 49.5q2 106 2 191v194q0 106 -3 223t-11 223q-2 43 -31 84t-96 70l-2 16q20 -2 55 -4t72 -5t71.5 -5t55.5 -2q23 0 75 2l111 4q57 4 114.5 7t106.5 3q25 0 52.5 -1t51 -4t40 -9t16.5 -17 q0 -45 7 -71.5t7 -61.5q0 -12 -8 -12q-12 0 -17 13t-16 28q-20 25 -81.5 49.5t-200.5 24.5q-41 0 -84 -4.5t-119 -8.5q-8 -23 -9 -48t-5 -52q-6 -88 -7.5 -183.5t-1.5 -185.5q57 0 110.5 -2t107.5 -2q18 0 35.5 1t35.5 1q47 2 96.5 16.5t90.5 67.5h10q-2 -35 -6 -59.5 t-4 -63.5v-53q0 -16 2 -55h-13q-27 45 -84 60.5t-108 19.5q-63 4 -133 4h-140v-4q0 -106 5.5 -194.5t9.5 -194.5q2 -41 32.5 -65t73.5 -38t93.5 -18t91.5 -4q59 0 119.5 7t109.5 42q59 41 94 85t51 44q14 0 15 -15q0 -14 -12 -32l-25 -40l-30 -45q-15 -24 -21 -46 q-4 -20 -19.5 -39t-79.5 -19h-247h-103q-41 0 -75.5 1t-69.5 1h-84z" />
<glyph unicode="f" horiz-adv-x="901" d="M287 1184q23 0 75 2l111 4q57 2 114.5 6t106.5 4q25 0 52.5 -1t51 -4t40 -9t16.5 -17q0 -47 7 -73.5t7 -59.5q0 -12 -8 -12q-12 0 -17 12.5t-16 26.5q-20 27 -81.5 51.5t-200.5 24.5q-41 0 -84 -4.5t-119 -8.5q-8 -20 -9 -46.5t-5 -55.5q-2 -29 -2 -57v-58 q0 -57 1 -114.5t1 -116.5q57 0 112.5 -3t108.5 -3q14 0 26.5 1t26.5 1q51 2 95 8t85 57h17q-4 -35 -8.5 -55t-4.5 -59q0 -37 2.5 -45.5t6.5 -47.5h-23q-27 45 -76 59.5t-102 16.5q-23 2 -47 2h-49q-47 0 -92 -1h-30q-30 0 -59 1q0 -106 4.5 -233t10.5 -230q2 -45 25.5 -80.5 t72.5 -54.5v-12q-49 4 -94 6t-90 2t-88 -2t-82 -6v12q39 16 65.5 49t28.5 78l4 222q2 114 2 223t-3 223.5t-11 222.5q-2 43 -31 84t-96 70l-2 16q20 -2 55 -4t72 -5t72 -5t55 -2z" />
<glyph unicode="g" horiz-adv-x="1355" d="M1243 127q0 -8 -3 -26.5t-11 -22.5q-27 -8 -63 -17.5t-66 -19.5q-86 -31 -177.5 -43t-197.5 -12q-143 0 -269 47t-220.5 129t-148.5 192.5t-54 235.5q0 127 52 239.5t147.5 197.5t227.5 135t294 50q63 0 138 -9t144 -19q33 -6 61.5 -19.5t59.5 -13.5q27 0 40 2t24 2 q6 0 6 -10q0 -8 -1 -19.5t-1 -27.5q0 -29 2 -59.5t2 -55.5q0 -8 -2 -26.5t-8 -18.5t-19.5 17.5l-34 42t-50.5 50t-68 42.5q-115 51 -261 51h-13q-125 0 -227 -37q-108 -39 -183.5 -107.5t-115.5 -163t-40 -204.5q0 -111 42 -214.5t113.5 -183t170 -128t210.5 -48.5 q63 0 145.5 20.5t162.5 47.5q29 8 34 36.5t9 57.5q-4 47 -4 94t-5 88q-4 61 -19 94t-75 68v10q41 -2 86 -5t90 -3q41 0 77 4t79 6l-2 -10q-49 -23 -58.5 -73t-11.5 -97q-6 -74 -7 -131t-1 -135z" />
<glyph unicode="h" horiz-adv-x="1366" d="M1147 8q-88 0 -170 -6v10q41 18 67.5 50t28.5 79q4 109 4 217v217v13q-197 6 -387 6q-203 0 -403 -6v-10q0 -106 4 -216l8 -215q4 -45 26.5 -80.5t71.5 -54.5v-12q-47 4 -93 6t-91 2q-43 0 -87 -2t-83 -6v12q39 16 66.5 49t29.5 78q2 109 2 217v217q0 106 -3 223t-9 224 q-2 45 -19.5 86t-76.5 78v8q41 -4 87 -6t89 -2t87 3t87 5v-8q-51 -23 -67.5 -73t-20.5 -95q-6 -57 -7 -116.5t-1 -119.5v-118q100 -2 200.5 -5.5t202.5 -3.5q190 0 387 6q-4 90 -6 182.5t-6 180.5q-4 45 -20.5 86t-75.5 76v10q39 -2 85 -5t91 -3q43 0 86 3t88 5v-10 q-51 -20 -68.5 -71.5t-21.5 -96.5q-4 -57 -5 -118.5t-1 -125.5v-192q0 -215 12 -430q2 -47 25.5 -82t72.5 -56v-10q-96 6 -186 6z" />
<glyph unicode="i" horiz-adv-x="430" d="M213 8q-43 0 -87 -2t-83 -6v12q39 16 66.5 49t29.5 78q2 109 2 217v217q0 106 -3 223t-9 224q-2 43 -19.5 85t-76.5 79v8q41 -4 87 -6t89 -2t87 3t87 5v-8q-51 -23 -67.5 -73t-20.5 -95q-6 -57 -7 -119.5t-1 -126.5v-192q0 -106 4 -216l8 -215q4 -45 26.5 -80.5 t71.5 -54.5v-12q-47 4 -93 6t-91 2z" />
<glyph unicode="j" horiz-adv-x="430" d="M152 1032q-4 41 -34 84t-89 78v12q41 -2 100 -6t104 -4q41 0 81 4t83 6v-10q-51 -20 -64.5 -71.5t-17.5 -98.5q-4 -49 -4 -99v-104v-151v-211q0 -141 -8 -260t-53 -201q-33 -61 -87 -98t-112 -58q-41 -18 -79 -30.5t-76 -12.5q-10 0 -22.5 3t-12.5 12q0 8 10 10 q76 27 137.5 58.5t95.5 107.5q20 47 33 105.5t19 122t8 127t2 122.5v119q0 106 -4 222t-10 222z" />
<glyph unicode="k" horiz-adv-x="1320" d="M213 10q-43 0 -87 -2t-83 -6v12q39 16 66.5 49t29.5 78q2 109 2 217v217q0 109 -3 226t-9 223q-2 41 -19.5 84t-76.5 78v10q41 -4 87 -6t89 -2t87 2t87 6v-10q-51 -23 -67.5 -72t-20.5 -96q-6 -59 -7 -127t-1 -133v-129q102 88 209.5 190.5t189.5 194.5q27 33 46.5 67.5 t19.5 67.5q0 23 -13 43l11 10q39 -4 80.5 -7t84.5 -3t90.5 4t96.5 6l-12 -10q-74 -23 -145 -73t-124 -95l-178 -162l-176 -166q70 -82 158 -176l170 -184q111 -121 209 -210t194 -89q35 0 46 5t28 5q12 0 14 -3t2 -7q0 -8 -52 -27.5t-132 -19.5q-84 0 -144.5 23.5 t-108.5 62.5t-92 90l-93 104l-151 170q-75 84 -155 154l-10 -8q-14 -16 -30.5 -30.5t-32.5 -31.5q0 -94 4 -187l8 -185q4 -45 26.5 -81t71.5 -57v-12q-47 4 -93 6t-91 2z" />
<glyph unicode="l" horiz-adv-x="978" d="M223 8q-41 0 -94 -4t-94 -6l-2 16q39 16 76.5 72.5t42.5 101.5q2 109 2 194v193q0 109 -4 224l-9 223q-2 41 -19.5 84t-76.5 78v10q41 -2 86 -5t90 -3q43 0 86 3t88 5v-10q-51 -20 -67.5 -71.5t-20.5 -96.5q-6 -57 -7 -118.5t-1 -125.5v-192q0 -109 3 -195t9 -195 q2 -39 23.5 -65.5t54.5 -40.5t74 -20.5t84 -6.5q59 0 133 15.5t125 50.5q29 20 49 45t34.5 46.5t26 35.5t21.5 14q6 0 8 -7t2 -11q0 -14 -9 -36t-22 -46l-24 -50q-12 -26 -19 -48q-8 -20 -23 -39t-44 -19q-51 -4 -106.5 -7t-106.5 -3q-61 0 -107.5 2t-87.5 3t-82 3t-92 2z " />
<glyph unicode="m" horiz-adv-x="1728" d="M1409 1018l143 -862q10 -53 50 -91t94 -57v-10q-45 8 -91 11t-92 3q-49 0 -98 -3t-96 -11v10q0 8 12 14.5t26.5 15.5t24 24.5t4.5 41.5l-112 727h-8l-394 -823q-10 -16 -18 -16q-4 0 -8 6t-12 14q-8 12 -21 35l-55 100l-129 235l-242 439l-14 -4l-101 -657q-2 -8 -2 -29 q0 -41 20.5 -71.5t69.5 -47.5l5 -12q-33 4 -92.5 6t-94.5 2q-37 0 -73.5 -2t-71.5 -6l10 8q57 16 92 68.5t43 116.5l133 847q2 37 -22.5 74t-79.5 70v10l80 -4q39 -2 84 -2l487 -928h31l369 760l79 168q43 0 81 2t83 6v-10q-53 -23 -78 -74q-18 -38 -18 -72q0 -11 2 -22z " />
<glyph unicode="n" horiz-adv-x="1339" d="M1020 1200q31 -4 57.5 -8t55.5 -4q43 0 87 2t87 6v-10q-51 -23 -68.5 -72t-19.5 -96q-6 -57 -7.5 -118.5t-1.5 -125.5v-192q0 -72 -2 -165t-2 -184q0 -45 1 -87t3 -76q2 -57 2 -77t-14 -20q-10 0 -49 43l-909 914h-11q-4 -29 -4 -59v-58q0 -59 2 -118.5t2 -112.5 q0 -106 3.5 -215t7.5 -215q4 -45 26.5 -81t73.5 -57v-12q-47 4 -93 6t-93 2q-43 0 -57.5 -1t-55.5 -5v12q39 16 66.5 49t27.5 78q4 109 4 217v218q0 72 1 148.5t1 152.5v76q0 38 -2 73v10q-4 39 -24.5 78t-77.5 74l-4 12q35 -2 81 -6t85 -4l909 -934h10q2 80 2 160v162 q0 109 -3 223.5t-9 222.5q-2 41 -14.5 84t-73.5 78v12z" />
<glyph unicode="o" horiz-adv-x="1449" d="M725 1196q166 0 295 -47t217 -128t134 -190.5t46 -236.5q0 -133 -54 -244.5t-148.5 -192.5t-220.5 -126t-269 -45t-269 47t-220.5 129t-148.5 192.5t-54 235.5q0 127 54 236.5t148.5 192.5t220.5 130t269 47zM725 1126q-115 0 -209 -35.5t-163.5 -102t-107.5 -158 t-38 -201.5q0 -111 38 -214.5t107.5 -183t163.5 -127t209 -47.5t212 34t169 97.5t113 152.5t41 200q0 137 -41 245.5t-113 184.5t-169 115.5t-212 39.5z" />
<glyph unicode="p" horiz-adv-x="972" d="M221 1176q82 0 158 6t149 6q51 0 122 -14.5t124 -43.5q82 -43 124 -117.5t42 -144.5q0 -84 -53 -161.5t-127 -120.5q-72 -43 -150 -52.5t-149 -9.5q-18 0 -44 2t-49.5 6.5t-40 12.5t-16.5 20q0 16 8 17q31 0 68 -8.5t68 -8.5q63 0 131.5 21.5t113.5 64.5 q43 41 58.5 100.5t15.5 125.5q0 6 1 11q0 51 -33 102q-36 56 -97 91q-45 27 -100.5 36t-106.5 9q-31 0 -59.5 -3t-59.5 -5q-12 -23 -11 -49.5t-1 -52.5q-6 -57 -7 -119.5t-1 -126.5v-192q0 -106 2 -215t10 -216q4 -59 26.5 -87.5t72.5 -47.5v-12q-47 4 -93.5 6t-93.5 2 q-41 0 -95 -2t-95 -6v12q39 18 76.5 50t42.5 77q2 109 2 217v217q0 106 -4 224l-9 223q-2 43 -20.5 82t-83.5 69v13q41 -4 90 -6t94 -2z" />
<glyph unicode="q" horiz-adv-x="1490" d="M743 1192q166 0 297 -49t220.5 -132t136.5 -192.5t47 -228.5q0 -104 -34 -195.5t-95.5 -163t-146.5 -124t-185 -80.5q139 -37 274.5 -85t272.5 -90t279.5 -71t293.5 -29q74 0 143.5 17.5t133.5 60.5q14 10 22 10q4 0 4 -2t-3 -7t-15 -13q-98 -76 -225 -120t-252 -44 q-211 0 -393.5 63.5t-350.5 141.5q-102 49 -207.5 90t-236.5 47q-141 6 -267 48t-220.5 117t-148.5 179t-54 235q0 125 57 237t154.5 197t226.5 134t272 49zM207 614q0 -117 41 -217t113.5 -173.5t174 -115.5t222.5 -42q236 0 377 136t141 369q0 133 -42 235.5t-114.5 172.5 t-170 105.5t-208.5 35.5q-123 0 -222 -38t-167.5 -104.5t-106.5 -159.5t-38 -204z" />
<glyph unicode="r" horiz-adv-x="1402" d="M221 1174q82 0 158 7t149 7q51 0 125 -14.5t127 -40.5q84 -45 122 -120t38 -147q0 -84 -44 -157.5t-116 -118.5q-18 -8 -36.5 -17.5t-41.5 -13.5l122 -171q67 -95 141.5 -179t154.5 -140.5t164 -56.5q18 0 36.5 2t39.5 2q10 0 10 -8q0 -10 -17.5 -20.5t-42 -17.5t-50 -11 t-41.5 -4q-135 0 -230.5 60.5t-174.5 149.5t-149.5 189.5t-156.5 182.5h-86q-20 2 -56 -1.5t-67 -5.5q0 -96 2 -192t10 -193q4 -59 26.5 -86.5t72.5 -48.5v-12q-47 2 -93.5 5t-93.5 3q-41 0 -95 -3t-95 -5v14q39 16 76.5 48t42.5 77q2 109 2 217v217q0 109 -4 226l-9 223 q-2 41 -20.5 81t-83.5 68v15q41 -4 90 -7t94 -3zM307 1014q-6 -55 -7 -112.5t-1 -117.5v-184q35 0 82 1t72 1q188 0 257 70q65 66 64 190v15q0 6 1 12q0 50 -30 103q-33 60 -96 95q-43 25 -101.5 31t-109.5 6q-31 0 -59.5 -3t-59.5 -5q-12 -23 -11 -49t-1 -53z" />
<glyph unicode="s" horiz-adv-x="821" d="M360 -10q-74 0 -134 14t-130 33q-33 6 -41 29.5t-8 58.5q0 2 -7 39t-7 74q0 12 7 30.5t21 18.5q8 0 20.5 -43t53.5 -84q20 -23 52 -42.5t68 -32.5t73 -21.5t63 -8.5q41 0 87 13.5t84 40t62.5 65.5t24.5 92q0 70 -41 122t-104.5 97t-137 86t-138 88.5t-106.5 103.5 t-42 132q0 53 20.5 106.5t64.5 96.5t110.5 70.5t158.5 27.5q53 0 106.5 -12.5t104.5 -12.5q23 0 38 8.5t42 8.5q10 0 10 -14q0 -53 7.5 -101.5t7.5 -99.5q0 -6 -4.5 -15.5t-8.5 -9.5q-8 0 -18 13.5t-21.5 32t-26 39t-30.5 32.5q-47 37 -111.5 52.5t-115.5 15.5 q-76 0 -141.5 -49.5t-65.5 -112.5q0 -61 43 -111.5t106.5 -95.5t138 -89t140 -94.5t108.5 -111.5t45 -139q0 -63 -24.5 -124t-77.5 -109t-134 -77.5t-192 -29.5z" />
<glyph unicode="t" horiz-adv-x="1253" d="M1221 1212q-8 -39 -44 -92t-47 -98q-4 -10 -10 -13t-10 -3q-8 0 -8 21.5t-4 41.5q-6 20 -34 31.5t-48 13.5q-70 2 -147 2h-146l-10 -102q-4 -59 -5 -121t-1 -125v-193q0 -109 3 -215t11 -215q2 -45 25.5 -79.5t72.5 -55.5v-12q-47 2 -93 5t-93 3q-43 0 -86 -3t-82 -5v12 q39 16 66.5 49t27.5 78q2 109 3 217.5t1 216.5q0 109 -1 234t-3 231v80q-84 0 -167 -3t-163 -19q-27 -4 -60.5 -17.5t-59.5 -32.5l-34 -27t-30 -13q-12 0 -12 8q2 18 27.5 45.5t37.5 52.5q12 23 27.5 48.5t19.5 47.5h23q12 -12 33.5 -18t62.5 -8q102 -2 205 -2h205 q98 0 207.5 3t214.5 7q37 0 62.5 9t47.5 15h15z" />
<glyph unicode="u" horiz-adv-x="1226" d="M608 -16q-76 0 -158.5 9t-152.5 46t-116 108.5t-50 194.5q-2 100 -3 145t-1 78q0 78 2 164t2 168v61q0 31 -2 60q-2 41 -19.5 84t-76.5 78v10q41 -2 87 -5t89 -3t87 3t87 5v-10q-51 -23 -67.5 -73t-20.5 -95q-6 -57 -7 -119t-1 -125v-193q0 -35 1 -76.5t5 -131.5 q2 -104 32.5 -166t77 -94.5t104.5 -42t118 -9.5q88 0 156.5 11.5t115.5 48.5t73.5 104.5t30.5 181.5q2 63 3 101v69q0 61 1 126t1 128q0 49 -1 97.5t-4 95.5q-2 59 -20 94t-88 68v10l63 -4q31 -2 64 -2q41 0 85 2t89 6v-10q-51 -23 -69.5 -57.5t-22.5 -110.5 q-4 -102 -4 -220v-219q0 -33 -1 -62.5t-1 -61.5q0 -164 -37 -258.5t-101.5 -140.5t-155 -57t-194.5 -11z" />
<glyph unicode="v" horiz-adv-x="1431" d="M414 565l-110 228l-116 227q-20 43 -47.5 83t-105.5 75l-2 12q43 -2 89 -6t91 -4q41 0 85 2l89 4l6 -12q-20 -10 -29.5 -31t-9.5 -43q0 -45 19 -88q43 -106 97 -221l99 -218l85 -175l87 -175h17l70 152l71 153q51 106 103 238l98 238q10 20 17 44.5t7 49.5q0 29 -16 51 t-66 31l7 10q39 -2 83 -5t89 -3q41 0 86 3t92 5l-4 -10q-61 -23 -102.5 -73t-67.5 -95q-55 -102 -109 -219l-100 -218l-52 -109l-62 -124l-74 -152l-89 -194q-6 -16 -20 -16q-12 0 -25 22l-61 128l-77 154l-78 153z" />
<glyph unicode="w" horiz-adv-x="1949" d="M1733 1188q45 0 92 2t92 6l-4 -10q-66 -23 -108 -72t-64 -96l-110 -222l-105 -218l-52 -109l-62 -123l-75 -152l-92 -196q-6 -16 -20 -16t-23 20q-18 43 -46 99l-59 118l-64 124l-60 118l-96 -193l-127 -270q-8 -14 -23 -14q-14 0 -20 20q-25 55 -63 130l-79 155l-79 154 l-64 128l-115 229l-119 228q-20 41 -46.5 82t-106.5 76l-2 10q43 -4 89 -6t91 -2q43 0 89 1t91 3l4 -10q-37 -23 -37 -76q0 -20 4.5 -43t14.5 -45l97 -222q52 -116 104 -218l87 -177l87 -174h16l72 153l71 152q2 6 5.5 11.5t7.5 13.5l-6 12q-51 109 -115 229l-119 228 q-23 41 -49.5 82t-104.5 76l-2 12q41 -4 87.5 -7t91.5 -3q88 0 180 6l6 -12q-41 -23 -41 -76q0 -43 23 -88l59 -139l65 -144l59 144l58 135q8 18 16.5 42.5t8.5 49.5q0 29 -17.5 52.5t-68.5 31.5l8 8q41 -4 84 -6t90 -2q43 0 89 3t91 5l-4 -8q-61 -23 -103 -73t-69 -95 q-49 -92 -97 -196l-93 -199q6 -12 11 -24.5t9 -25.5l87 -174l91 -176h17l141 307l104 238l101 240q8 18 16 42.5t8 49.5q0 29 -17 51.5t-67 32.5l5 10q41 -4 86 -6t88 -2z" />
<glyph unicode="x" horiz-adv-x="1361" d="M1137 1188q43 0 90 3t92 5l-10 -8q-66 -23 -133.5 -70t-106.5 -94l-153 -176l-148 -180l31 -43l32 -45l152 -213l154 -213q35 -45 77.5 -83t106.5 -59l8 -10q-100 6 -192 6q-43 0 -88 -2t-82 -4v10q16 12 16 33q0 33 -43 96q-72 102 -133.5 205t-130.5 205l-149 -198 q-73 -101 -136 -201q-29 -49 -29 -78q0 -40 39 -62v-10q-45 2 -94 6t-94 4t-91 -4t-89 -6l12 14q53 16 105.5 49t89.5 78l175 217l171 218q10 12 19 24t20 23l-146 194l-147 193q-29 43 -70 90t-125 82l-8 10q43 -2 90 -5t92 -3q41 0 90.5 3t90.5 5l-5 -10q-17 -8 -16 -35 q0 -25 22 -59l44 -72l87 -134l93 -141l209 281q20 29 36.5 57.5t16.5 57.5q0 27 -21 49v8q39 -4 87.5 -6t91.5 -2z" />
<glyph unicode="y" horiz-adv-x="1300" d="M1102 1184q45 0 81 6t85 10l-17 -10q-72 -27 -126 -84t-95 -111l-162 -207l-157 -206q-2 -31 -2 -62v-61q0 -156 12 -314q2 -45 25.5 -79.5t72.5 -55.5v-12q-47 2 -93 5t-93 3q-43 0 -86 -3t-82 -5v12q39 16 66.5 49t27.5 78q2 100 3 197.5t1 197.5q-78 109 -152.5 229 t-156.5 226l-79 98q-44 53 -132 95l-10 12q45 -4 95 -7t97 -3q45 0 90 5t91 7l-9 -12q-10 -6 -20.5 -25t-10.5 -33q0 -29 27 -69l56 -82l99 -155q50 -79 109 -150l122 142.5t112 152.5q23 33 53.5 82t30.5 81q0 31 -19 56l-4 12q39 -2 72 -6t78 -4z" />
<glyph unicode="z" horiz-adv-x="1409" d="M641 4q-109 -2 -172 -3t-116.5 -2t-116.5 -1h-173h-20q-10 0 -10 14q0 4 13 19.5t52 57.5l110 117l184 195l277 295l386 414l-2 6q-41 2 -94.5 3t-106.5 1h-96h-62q-180 0 -292.5 -13t-168.5 -38q-33 -14 -49 -31.5t-23 -32t-9 -24.5t-11 -10q-2 0 -7 11t-5 15q0 35 8 74 t8 84q0 20 12.5 28.5t59.5 8.5q59 0 131 -1l145 -2q73 -1 138 -2t112 -1q23 0 107 -1t179 -1t177 -1t103 -1q20 0 20 -15q0 -6 -4 -12l-4 -6l-987 -1038q-8 -12 -8 -17q0 -14 41 -20t139 -6q27 0 59.5 1t71.5 1q27 2 107.5 4t176 10t184.5 23.5t134 42.5q61 37 85 63.5 t40 26.5q12 0 12 -13q0 -14 -12 -32.5t-28 -38.5l-30 -42q-15 -22 -22 -44q-8 -20 -29.5 -47t-87.5 -27q-25 0 -100.5 1t-161.5 3t-161.5 3t-102.5 1z" />
<glyph unicode="&#xa3;" horiz-adv-x="1275" d="M285 16q-53 0 -123 -6t-121 -10v33q25 12 51.5 39.5t48 61.5t37 71t15.5 69q2 78 3 144.5t1 131.5v131v144q0 115 -9.5 221.5t-13.5 199.5t7.5 172t52 136.5t119.5 93t212 44.5q70 4 141.5 9t133.5 5q31 0 65.5 -1t64 -5t50 -12.5t20.5 -24.5q0 -66 8.5 -104.5t8.5 -85.5 q0 -18 -13 -19q-14 0 -20 18.5t-20 38.5q-25 35 -101 71t-250 36q-139 0 -197.5 -64.5t-73.5 -164t-7 -221t2 -236.5q90 0 180 -4t174 0q59 2 119.5 22.5t112.5 96.5h14q-4 -51 -9 -85t-5 -90v-44v-32q0 -15 1 -33t3 -46h-15q-33 63 -103.5 85.5t-135.5 26.5q-78 6 -164 7.5 t-172 1.5v-7q0 -154 4 -277.5t12 -277.5q4 -57 41 -93t90.5 -55t114.5 -25.5t115 -6.5q72 0 147.5 10.5t138.5 61.5q37 29 66 61l50 60l37 44t24 17q18 0 18 -18q0 -20 -13.5 -47t-31.5 -59l-36 -64q-17 -33 -26 -66q-8 -29 -26.5 -55.5t-95.5 -26.5h-310h-126q-50 0 -93 1 t-86 1h-106z" />
<glyph unicode="&#xaa;" horiz-adv-x="1394" d="M815 1020l397 -866q47 -106 150 -144v-10q-92 12 -182 12q-98 0 -193 -12v8q0 20 25.5 43t25.5 51q0 31 -14 56l-127 307q-53 4 -108.5 7t-110.5 3q-57 0 -114.5 -3t-112.5 -7l-148 -334q-8 -18 -14 -33.5t-6 -31.5q0 -27 30 -58v-8q-35 4 -67.5 6t-67.5 2 q-37 0 -73.5 -2t-71.5 -6l10 8q57 16 103.5 55t74.5 97l402 839q4 17 4 29q0 39 -36 81q-38 44 -89 75l-4 10q39 -2 96 -4t100 -2h45zM862 532v9l-174 403h-4l-192 -403v-9q45 -2 91 -3t93 -1q45 0 92 1t94 3z" />
<glyph unicode="&#xad;" horiz-adv-x="774" d="M41 678h692v-105h-692v105z" />
<glyph unicode="&#xb2;" horiz-adv-x="1138" d="M100 0q-18 0 -28.5 12.5t4.5 32.5q94 133 212 267t222 272.5t175 286t71 307.5q0 51 -9.5 116.5t-42 124t-96 99.5t-170.5 41q-29 0 -65.5 -6.5t-68.5 -17.5t-54.5 -27.5t-22.5 -39.5q0 -27 18.5 -40t42 -25t42 -33.5t18.5 -69.5q0 -92 -52 -125.5t-103 -33.5 q-59 0 -105.5 48t-46.5 111q0 45 30.5 106.5t94 118t159 96.5t222.5 40q106 0 190 -36t142.5 -93t90 -131t31.5 -150q0 -154 -80.5 -298t-195.5 -285.5t-241 -281.5t-218 -284h502q39 0 87 21.5t89 50.5q53 39 90 79t47 40q6 0 11.5 -10.5t5.5 -16.5q0 -41 -18 -89l-33 -95 q-14 -41 -49 -61.5t-80 -20.5h-818z" />
<glyph unicode="&#xb3;" horiz-adv-x="1193" d="M502 -27q-92 0 -175 25t-146.5 69t-101.5 103t-38 129q0 84 49 138.5t133 54.5q74 0 98.5 -35t24.5 -76q0 -70 -23.5 -94.5t-52 -30.5t-52 -9t-23.5 -30q0 -18 26.5 -46t67.5 -53.5t91 -44t97 -18.5q154 0 242 44t132 110.5t55.5 142.5t11.5 140q0 55 -19.5 114.5 t-57.5 108.5t-95.5 81.5t-133.5 32.5q-70 0 -112.5 -9t-68 -21.5t-36 -22.5t-16.5 -10q-10 -4 -21.5 0t-11.5 12q0 23 24.5 54.5t67.5 56.5q53 29 121 54.5t125 68.5q70 53 105.5 126.5t35.5 143.5q0 39 -15 83t-43 81t-70 61.5t-93 24.5q-111 0 -192.5 -23.5t-140 -53.5 t-94.5 -53.5t-54 -23.5t-19 29q0 37 55.5 81t138.5 83t180 65.5t179 26.5q213 0 318.5 -87t105.5 -218q0 -76 -25.5 -133.5t-65.5 -103.5t-91 -84l-102 -76q94 -6 161.5 -44t110.5 -94.5t63.5 -124t20.5 -133.5q0 -111 -43 -216t-126 -189t-204.5 -135.5t-277.5 -51.5z" />
<glyph unicode="&#xb9;" horiz-adv-x="595" d="M324 10q-53 0 -106.5 -3t-104.5 -7v16q49 25 82.5 72t35.5 111q2 156 3.5 310.5t1.5 309.5q0 154 -4 231l-5 128q0 18 -6 51t-16 65.5t-25.5 57t-36.5 24.5q-20 0 -48.5 -16.5t-43.5 -18.5q-10 0 -10 13v24q0 23 55.5 48.5t110.5 70.5q31 25 57 51l48 49q22 23 39.5 38.5 t25.5 15.5q16 0 26.5 -19.5t15.5 -48.5t7 -64.5t2 -68.5q-2 -152 -7 -315.5t-5 -309.5q0 -154 4 -307t12 -307q2 -63 32 -114.5t91 -80.5v-16q-59 4 -116.5 7t-114.5 3z" />
<glyph unicode="&#xba;" horiz-adv-x="1449" d="M725 1196q166 0 295 -47t217 -128t134 -190.5t46 -236.5q0 -133 -54 -244.5t-148.5 -192.5t-220.5 -126t-269 -45t-269 47t-220.5 129t-148.5 192.5t-54 235.5q0 127 54 236.5t148.5 192.5t220.5 130t269 47zM725 1126q-115 0 -209 -35.5t-163.5 -102t-107.5 -158 t-38 -201.5q0 -111 38 -214.5t107.5 -183t163.5 -127t209 -47.5t212 34t169 97.5t113 152.5t41 200q0 137 -41 245.5t-113 184.5t-169 115.5t-212 39.5z" />
<glyph unicode="&#xc0;" horiz-adv-x="1875" d="M219 2093q27 -6 57.5 -8t55.5 -2q23 0 52.5 3t49.5 7l98 -170q23 -39 13.5 -65.5t-48.5 -26.5q-45 0 -88 30.5t-73 71.5zM1274 225l-152 406q-186 -61 -340.5 -157.5t-277.5 -217.5q-20 -20 -46 -50t-47 -58l-37 -49q-15 -22 -16 -27q0 -29 31 -60v-12q-82 12 -166 12 q-92 0 -182 -12l10 12q72 23 131.5 78t93.5 139l496 1198q6 19 6 40q0 57 -44 117q-46 62 -111 108l-5 14q51 -4 121 -7t125 -3h56l94 -240l268 -672q84 6 170 7q51 0 103 -3q138 -6 272 -26l8 -41q-52 2 -103 2q-84 0 -163 -6q-127 -10 -246 -35l184 -463q29 -74 74 -126 t111 -79v-14q-115 18 -226 18q-121 0 -241 -18v12q0 14 10 29.5t22.5 32t22.5 35t10 36.5t-5 41t-11 39zM848 1350l-363 -893q121 121 272.5 191.5t319.5 105.5l-223 596h-6z" />
<glyph unicode="&#xc8;" horiz-adv-x="1708" d="M735 2093q27 -6 57.5 -8t55.5 -2q23 0 52.5 3t49.5 7l98 -170q23 -39 13.5 -65.5t-48.5 -26.5q-45 0 -88 30.5t-73 71.5zM1186 96q72 0 147.5 10.5t139.5 61.5q37 29 65 61l50 60l36 44q14 17 25 17q18 0 18 -18q0 -20 -13.5 -47t-31.5 -59l-36 -64q-17 -33 -25 -66 q-8 -29 -26.5 -55.5t-96.5 -26.5h-310h-126q-50 0 -93 1t-86 1h-106q-53 0 -123 -6t-121 -10v33q25 12 51.5 39.5t48 61.5t37 71t15.5 69q2 78 3 144.5t1 131.5v131v144q0 74 -3 164t-9 183l-10 184q-5 90 -7 168q-176 -76 -281.5 -189.5t-105.5 -222.5t27.5 -155t74.5 -46 q49 0 72 28t23 67q0 84 -25 118.5t-53 55.5q29 0 60.5 -13.5t60 -37t47 -56.5t18.5 -74q0 -123 -72.5 -173t-158.5 -50q-43 0 -86 17.5t-79 53.5t-58.5 87t-22.5 119q0 137 88 258t241.5 211t362.5 140q186 45 400 45q26 0 53 -1h86q31 0 65.5 -1t64.5 -5t50.5 -12.5 t20.5 -24.5q0 -66 8 -104.5t8 -85.5q0 -18 -12 -19q-14 0 -20.5 18.5t-20.5 38.5q-25 35 -102 71t-255 36q-127 0 -248 -25q-8 -29 -10 -65l-4 -72q-8 -125 -8 -260v-264q90 0 180 -4q45 -2 88.5 -2t85.5 2q59 2 119.5 22.5t112.5 96.5h14q-4 -51 -9 -85t-5 -90v-44v-32 q0 -15 1 -33t3 -46h-15q-33 63 -103.5 85.5t-135.5 26.5q-78 6 -164 7.5t-172 1.5v-7q0 -154 4 -277.5t12 -277.5q2 -57 40 -93t91.5 -55t116 -25.5t113.5 -6.5z" />
<glyph unicode="&#xcc;" horiz-adv-x="929" d="M150 2093q27 -6 57.5 -8t55.5 -2q23 0 52.5 3t49.5 7l98 -170q23 -39 13.5 -65.5t-48.5 -26.5q-45 0 -88 30.5t-73 71.5zM655 10q-53 0 -106 -3t-105 -7v16q49 25 83 72t36 111q2 78 3 168t1 182v182v168v158q0 90 -1 173t-7 191q-4 49 -29 95q84 -4 133.5 -8.5t74 -9.5 t31.5 -10t7 -9q0 -8 -5 -30t-7 -36q-4 -74 -7 -135t-5 -119.5t-3 -120t-1 -133.5q0 -78 1 -167t3 -180t5 -181t7 -166q2 -63 31.5 -114.5t91.5 -80.5v-16q-59 4 -117 7t-115 3zM287 823q-43 0 -86 17.5t-79 53.5t-58.5 87t-22.5 119q0 90 43 189.5t119 182t176 136t213 53.5 q16 0 75.5 -3t117 -20.5t89.5 -56.5q15 -18 16 -44q0 -29 -20 -67q-14 2 -29.5 15.5t-42 29t-70.5 28.5t-116 13q-100 0 -175 -40.5t-125 -100t-74.5 -129t-24.5 -127.5q0 -106 27.5 -153.5t74.5 -47.5q49 0 72 28t23 67q0 82 -25 116.5t-53 57.5q29 0 60.5 -13.5t60 -37 t47 -56.5t18.5 -73q0 -123 -72.5 -173.5t-158.5 -50.5z" />
<glyph unicode="&#xd2;" horiz-adv-x="1802" d="M467 2093q27 -6 57.5 -8t55.5 -2q23 0 52.5 3t49.5 7l98 -170q23 -39 13.5 -65.5t-48.5 -26.5q-45 0 -88 30.5t-73 71.5zM743 836q-43 0 -86 17t-78.5 53t-58 87t-22.5 119q0 90 43 189.5t118.5 182.5t175 136t214.5 53q170 0 302 -70.5t223 -186.5t139 -264t48 -304 q0 -190 -67.5 -350t-184 -276t-273.5 -179t-335 -63t-334.5 67.5t-273.5 185t-184.5 275.5t-67.5 336q0 174 64.5 327.5t175 270.5t261 187.5t322.5 78.5q-45 -78 -86 -97.5t-82 -31.5q-201 -63 -320.5 -244.5t-119.5 -437.5q0 -158 48 -305.5t133 -261t204 -181t260 -67.5 t263 48t210 138t139.5 218t51.5 286q0 147 -36 290.5t-101.5 255.5t-156.5 181.5t-202 69.5q-100 0 -175 -41t-125 -100.5t-74.5 -129t-24.5 -127.5q0 -106 27.5 -153t74.5 -47q49 0 71.5 27.5t22.5 66.5q0 82 -25.5 117t-52.5 57q27 0 60 -13.5t61.5 -37t47 -56t18.5 -73.5 q0 -123 -73 -173t-159 -50z" />
<glyph unicode="&#xd9;" horiz-adv-x="1767" d="M213 2095q27 -6 57.5 -8t55.5 -2q23 0 52.5 3t49.5 7l98 -170q23 -39 13.5 -65.5t-48.5 -26.5q-45 0 -88 30.5t-73 71.5zM999 -23q-94 0 -196.5 13.5t-189.5 66t-145 153.5t-60 277q0 8 -1 17q0 131 31 266q33 143 85 271t119 233.5t132 169.5l45 10l-85 -225 q-40 -109 -70.5 -218.5t-46.5 -228.5q-12 -94 -12 -200q0 -28 1 -58q4 -150 41 -237.5t95.5 -134t130 -60.5t147.5 -14q109 0 193.5 16.5t143 68.5t91.5 150.5t39 259.5q3 72 3 121v23q-1 53 -1 98q0 154 2 319q1 41 0 81q0 122 -4 239q-4 86 -26.5 135t-106.5 97v14 q39 -2 77.5 -6t77.5 -4q51 0 106.5 5t110.5 7v-14q-63 -33 -85.5 -82.5t-26.5 -157.5q-6 -147 -7 -314t-1 -311q0 -45 -1 -90t-1 -90q0 -233 -45.5 -367.5t-126 -200t-191.5 -82t-242 -16.5zM246 924q-76 12 -140.5 80.5t-64.5 177.5q0 88 47 182t126 171t181.5 126 t214.5 49q-6 0 46.5 -4t118 -19.5t120.5 -48t55 -92.5q0 -37 -28 -73q-10 2 -29 22.5t-53.5 44t-88 43t-135.5 19.5q-104 0 -180 -44.5t-125 -108t-72.5 -136t-23.5 -129.5q0 -61 20.5 -92t57.5 -39q12 -2 23 -2q33 0 53 18q27 25 32 64q2 14 3.5 27.5t1.5 23.5 q0 53 -17.5 81.5t-36.5 51.5q27 -6 56.5 -23.5t54 -45t38.5 -63.5q9 -25 9 -52q0 -12 -2 -25q-16 -104 -78.5 -146t-134.5 -42q-12 0 -24.5 1t-24.5 3z" />
<glyph unicode="&#xe0;" horiz-adv-x="1394" d="M98 1581q27 -6 57.5 -8t55.5 -2q23 0 52.5 3t49.5 7l98 -170q23 -39 13.5 -65.5t-48.5 -26.5q-45 0 -88 30.5t-73 71.5zM815 1020l397 -866q47 -106 150 -144v-10q-92 12 -182 12q-98 0 -193 -12v8q0 20 25.5 43t25.5 51q0 31 -14 56l-127 307q-53 4 -108.5 7t-110.5 3 q-57 0 -114.5 -3t-112.5 -7l-148 -334q-8 -18 -14 -33.5t-6 -31.5q0 -27 30 -58v-8q-35 4 -67.5 6t-67.5 2q-37 0 -73.5 -2t-71.5 -6l10 8q57 16 103.5 55t74.5 97l402 839q4 17 4 29q0 39 -36 81q-38 44 -89 75l-4 10q39 -2 96 -4t100 -2h45zM862 532v9l-174 403h-4 l-192 -403v-9q45 -2 91 -3t93 -1q45 0 92 1t94 3z" />
<glyph unicode="&#xe8;" horiz-adv-x="1046" d="M-35 1581q27 -6 57.5 -8t55.5 -2q23 0 52.5 3t49.5 7l98 -170q23 -39 13.5 -65.5t-48.5 -26.5q-45 0 -88 30.5t-73 71.5zM248 12q-45 0 -100.5 -4t-96.5 -8v23q20 8 42 27.5t39.5 43t29.5 50t12 49.5q2 106 2 191v194q0 106 -3 223t-11 223q-2 43 -31 84t-96 70l-2 16 q20 -2 55 -4t72 -5t71.5 -5t55.5 -2q23 0 75 2l111 4q57 4 114.5 7t106.5 3q25 0 52.5 -1t51 -4t40 -9t16.5 -17q0 -45 7 -71.5t7 -61.5q0 -12 -8 -12q-12 0 -17 13t-16 28q-20 25 -81.5 49.5t-200.5 24.5q-41 0 -84 -4.5t-119 -8.5q-8 -23 -9 -48t-5 -52 q-6 -88 -7.5 -183.5t-1.5 -185.5q57 0 110.5 -2t107.5 -2q18 0 35.5 1t35.5 1q47 2 96.5 16.5t90.5 67.5h10q-2 -35 -6 -59.5t-4 -63.5v-53q0 -16 2 -55h-13q-27 45 -84 60.5t-108 19.5q-63 4 -133 4h-140v-4q0 -106 5.5 -194.5t9.5 -194.5q2 -41 32.5 -65t73.5 -38 t93.5 -18t91.5 -4q59 0 119.5 7t109.5 42q59 41 94 85t51 44q14 0 15 -15q0 -14 -12 -32l-25 -40l-30 -45q-15 -24 -21 -46q-4 -20 -19.5 -39t-79.5 -19h-247h-103q-41 0 -75.5 1t-69.5 1h-84z" />
<glyph unicode="&#xec;" horiz-adv-x="430" d="M-192 1581q27 -6 57.5 -8t55.5 -2q23 0 52.5 3t49.5 7l98 -170q23 -39 13.5 -65.5t-48.5 -26.5q-45 0 -88 30.5t-73 71.5zM213 8q-43 0 -87 -2t-83 -6v12q39 16 66.5 49t29.5 78q2 109 2 217v217q0 106 -3 223t-9 224q-2 43 -19.5 85t-76.5 79v8q41 -4 87 -6t89 -2t87 3 t87 5v-8q-51 -23 -67.5 -73t-20.5 -95q-6 -57 -7 -119.5t-1 -126.5v-192q0 -106 4 -216l8 -215q4 -45 26.5 -80.5t71.5 -54.5v-12q-47 4 -93 6t-91 2z" />
<glyph unicode="&#xf2;" horiz-adv-x="1449" d="M328 1581q27 -6 57.5 -8t55.5 -2q23 0 52.5 3t49.5 7l98 -170q23 -39 13.5 -65.5t-48.5 -26.5q-45 0 -88 30.5t-73 71.5zM725 1196q166 0 295 -47t217 -128t134 -190.5t46 -236.5q0 -133 -54 -244.5t-148.5 -192.5t-220.5 -126t-269 -45t-269 47t-220.5 129t-148.5 192.5 t-54 235.5q0 127 54 236.5t148.5 192.5t220.5 130t269 47zM725 1126q-115 0 -209 -35.5t-163.5 -102t-107.5 -158t-38 -201.5q0 -111 38 -214.5t107.5 -183t163.5 -127t209 -47.5t212 34t169 97.5t113 152.5t41 200q0 137 -41 245.5t-113 184.5t-169 115.5t-212 39.5z" />
<glyph unicode="&#xf9;" horiz-adv-x="1226" d="M793 1581q27 -6 57.5 -8t55.5 -2q23 0 52.5 3t49.5 7l98 -170q23 -39 13.5 -65.5t-48.5 -26.5q-45 0 -88 30.5t-73 71.5zM608 -16q-76 0 -158.5 9t-152.5 46t-116 108.5t-50 194.5q-2 100 -3 145t-1 78q0 78 2 164t2 168v61q0 31 -2 60q-2 41 -19.5 84t-76.5 78v10 q41 -2 87 -5t89 -3t87 3t87 5v-10q-51 -23 -67.5 -73t-20.5 -95q-6 -57 -7 -119t-1 -125v-193q0 -35 1 -76.5t5 -131.5q2 -104 32.5 -166t77 -94.5t104.5 -42t118 -9.5q88 0 156.5 11.5t115.5 48.5t73.5 104.5t30.5 181.5q2 63 3 101v69q0 61 1 126t1 128q0 49 -1 97.5 t-4 95.5q-2 59 -20 94t-88 68v10l63 -4q31 -2 64 -2q41 0 85 2t89 6v-10q-51 -23 -69.5 -57.5t-22.5 -110.5q-4 -102 -4 -220v-219q0 -33 -1 -62.5t-1 -61.5q0 -164 -37 -258.5t-101.5 -140.5t-155 -57t-194.5 -11z" />
<glyph unicode="&#x152;" horiz-adv-x="3510" d="M2988 96q72 0 147.5 10.5t139.5 61.5q37 29 65 61l50 60l36 44q14 17 25 17q18 0 18 -18q0 -20 -13.5 -47t-31.5 -59l-36 -64q-17 -33 -25 -66q-8 -29 -26.5 -55.5t-96.5 -26.5h-310h-126q-50 0 -93 1t-86 1h-106q-53 0 -123 -6t-121 -10v33q25 12 51.5 39.5t48 61.5 t37 71t15.5 69q2 78 3 144.5t1 131.5v131v144q0 74 -3 164t-9 183l-10 184q-5 90 -7 168q-176 -76 -281.5 -189.5t-105.5 -222.5t27.5 -155t74.5 -46q49 0 72 28t23 67q0 84 -25 118.5t-53 55.5q29 0 60.5 -13.5t60 -37t47 -56.5t18.5 -74q0 -123 -72.5 -173t-158.5 -50 q-43 0 -86 17.5t-79 53.5t-58.5 87t-22.5 119q0 137 88 258t241.5 211t362.5 140q186 45 400 45q26 0 53 -1h86q31 0 65.5 -1t64.5 -5t50.5 -12.5t20.5 -24.5q0 -66 8 -104.5t8 -85.5q0 -18 -12 -19q-14 0 -20.5 18.5t-20.5 38.5q-25 35 -102 71t-255 36q-127 0 -248 -25 q-8 -29 -10 -65l-4 -72q-8 -125 -8 -260v-264q90 0 180 -4q45 -2 88.5 -2t85.5 2q59 2 119.5 22.5t112.5 96.5h14q-4 -51 -9 -85t-5 -90v-44v-32q0 -15 1 -33t3 -46h-15q-33 63 -103.5 85.5t-135.5 26.5q-78 6 -164 7.5t-172 1.5v-7q0 -154 4 -277.5t12 -277.5q2 -57 40 -93 t91.5 -55t116 -25.5t113.5 -6.5zM743 836q-43 0 -86 17t-78.5 53t-58 87t-22.5 119q0 90 43 189.5t118.5 182.5t175 136t214.5 53q170 0 302 -70.5t223 -186.5t139 -264t48 -304q0 -190 -67.5 -350t-184 -276t-273.5 -179t-335 -63t-334.5 67.5t-273.5 185t-184.5 275.5 t-67.5 336q0 174 64.5 327.5t175 270.5t261 187.5t322.5 78.5q-45 -78 -86 -97.5t-82 -31.5q-201 -63 -320.5 -244.5t-119.5 -437.5q0 -158 48 -305.5t133 -261t204 -181t260 -67.5t263 48t210 138t139.5 218t51.5 286q0 147 -36 290.5t-101.5 255.5t-156.5 181.5t-202 69.5 q-100 0 -175 -41t-125 -100.5t-74.5 -129t-24.5 -127.5q0 -106 27.5 -153t74.5 -47q49 0 71.5 27.5t22.5 66.5q0 82 -25.5 117t-52.5 57q27 0 60 -13.5t61.5 -37t47 -56t18.5 -73.5q0 -123 -73 -173t-159 -50z" />
<glyph unicode="&#x153;" horiz-adv-x="2496" d="M1698 12q-45 0 -100.5 -4t-96.5 -8v23q20 8 42 27.5t39.5 43t29.5 50t12 49.5q2 106 2 191v194q0 106 -3 223t-11 223q-2 43 -31 84t-96 70l-2 16q20 -2 55 -4t72 -5t71.5 -5t55.5 -2q23 0 75 2l111 4q57 4 114.5 7t106.5 3q25 0 52.5 -1t51 -4t40 -9t16.5 -17 q0 -45 7 -71.5t7 -61.5q0 -12 -8 -12q-12 0 -17 13t-16 28q-20 25 -81.5 49.5t-200.5 24.5q-41 0 -84 -4.5t-119 -8.5q-8 -23 -9 -48t-5 -52q-6 -88 -7.5 -183.5t-1.5 -185.5q57 0 110.5 -2t107.5 -2q18 0 35.5 1t35.5 1q47 2 96.5 16.5t90.5 67.5h10q-2 -35 -6 -59.5 t-4 -63.5v-53q0 -16 2 -55h-13q-27 45 -84 60.5t-108 19.5q-63 4 -133 4h-140v-4q0 -106 5.5 -194.5t9.5 -194.5q2 -41 32.5 -65t73.5 -38t93.5 -18t91.5 -4q59 0 119.5 7t109.5 42q59 41 94 85t51 44q14 0 15 -15q0 -14 -12 -32l-25 -40l-30 -45q-15 -24 -21 -46 q-4 -20 -19.5 -39t-79.5 -19h-247h-103q-41 0 -75.5 1t-69.5 1h-84zM725 1196q166 0 295 -47t217 -128t134 -190.5t46 -236.5q0 -133 -54 -244.5t-148.5 -192.5t-220.5 -126t-269 -45t-269 47t-220.5 129t-148.5 192.5t-54 235.5q0 127 54 236.5t148.5 192.5t220.5 130 t269 47zM725 1126q-115 0 -209 -35.5t-163.5 -102t-107.5 -158t-38 -201.5q0 -111 38 -214.5t107.5 -183t163.5 -127t209 -47.5t212 34t169 97.5t113 152.5t41 200q0 137 -41 245.5t-113 184.5t-169 115.5t-212 39.5z" />
<glyph unicode="&#x2000;" horiz-adv-x="1046" />
<glyph unicode="&#x2001;" horiz-adv-x="2095" />
<glyph unicode="&#x2002;" horiz-adv-x="1046" />
<glyph unicode="&#x2003;" horiz-adv-x="2095" />
<glyph unicode="&#x2004;" horiz-adv-x="698" />
<glyph unicode="&#x2005;" horiz-adv-x="522" />
<glyph unicode="&#x2006;" horiz-adv-x="348" />
<glyph unicode="&#x2007;" horiz-adv-x="348" />
<glyph unicode="&#x2008;" horiz-adv-x="260" />
<glyph unicode="&#x2009;" horiz-adv-x="417" />
<glyph unicode="&#x200a;" horiz-adv-x="114" />
<glyph unicode="&#x2010;" horiz-adv-x="774" d="M41 678h692v-105h-692v105z" />
<glyph unicode="&#x2011;" horiz-adv-x="774" d="M41 678h692v-105h-692v105z" />
<glyph unicode="&#x2012;" horiz-adv-x="774" d="M41 678h692v-105h-692v105z" />
<glyph unicode="&#x2013;" horiz-adv-x="1024" d="M41 573v105h942v-105h-942z" />
<glyph unicode="&#x2014;" horiz-adv-x="2048" d="M41 573v105h1966v-105h-1966z" />
<glyph unicode="&#x2018;" d="M131 1700q27 0 56.5 -10.5t55 -27.5t42 -40t16.5 -49q0 -53 -26.5 -94t-79.5 -41q-23 0 -54 10q-10 -49 -3 -68.5t40 -42.5l-55 -30q-45 27 -63.5 67.5t-18.5 134.5q0 27 4 60t14.5 61.5t27.5 49t44 20.5z" />
<glyph unicode="&#x2019;" d="M211 1700q27 0 44 -20.5t27.5 -49t14.5 -61.5t4 -60q0 -94 -18.5 -135t-63.5 -67l-55 30q33 23 40 42.5t-3 68.5q-31 -10 -54 -10q-53 0 -79.5 41t-26.5 94q0 27 16.5 49.5t42 39.5t55 27.5t56.5 10.5z" />
<glyph unicode="&#x201c;" horiz-adv-x="659" d="M131 1700q27 0 56.5 -10.5t55 -27.5t42 -40t16.5 -49q0 -53 -26.5 -94t-79.5 -41q-23 0 -54 10q-10 -49 -3 -68.5t40 -42.5l-55 -30q-45 27 -63.5 67.5t-18.5 134.5q0 27 4 60t14.5 61.5t27.5 49t44 20.5zM449 1698q27 0 56.5 -10.5t55 -28t41.5 -40t16 -48.5 q0 -51 -26.5 -93t-79.5 -42q-23 0 -53 10q-10 -49 -3 -69.5t40 -41.5l-56 -30q-45 27 -63.5 67.5t-18.5 134.5q0 27 4.5 59.5t14.5 62.5t27.5 49.5t44.5 19.5z" />
<glyph unicode="&#x201d;" horiz-adv-x="665" d="M211 1700q27 0 44 -20.5t27.5 -49t14.5 -61.5t4 -60q0 -94 -18.5 -135t-63.5 -67l-55 30q33 23 40 42.5t-3 68.5q-31 -10 -54 -10q-53 0 -79.5 41t-26.5 94q0 27 16.5 49.5t42 39.5t55 27.5t56.5 10.5zM535 1698q27 0 44 -19.5t27 -49.5t14.5 -62.5t4.5 -59.5 q0 -94 -18.5 -135t-63.5 -67l-56 30q33 20 40.5 41t-3.5 70q-31 -10 -53 -10q-53 0 -79.5 42t-26.5 93q0 27 16 49t42 39.5t55.5 28t56.5 10.5z" />
<glyph unicode="&#x2026;" horiz-adv-x="1026" d="M895 262q53 0 71.5 -39t18.5 -90t-50 -92t-104 -41q-53 0 -79.5 41t-26.5 94q0 27 16.5 49.5t42 40t55 27.5t56.5 10zM553 262q53 0 71.5 -39t18.5 -90t-50 -92t-104 -41q-53 0 -79.5 41t-26.5 94q0 27 16.5 49.5t42 40t55 27.5t56.5 10zM211 262q53 0 71.5 -39t18.5 -90 t-50 -92t-104 -41q-53 0 -79.5 41t-26.5 94q0 27 16.5 49.5t42 40t55 27.5t56.5 10z" />
<glyph unicode="&#x202f;" horiz-adv-x="417" />
<glyph unicode="&#x205f;" horiz-adv-x="522" />
<glyph unicode="&#x2122;" horiz-adv-x="4014" d="M3616 1454l181 -1231q12 -78 62 -131t114 -80v-14q-113 18 -226 18q-121 0 -241 -18v12q0 14 15 23.5t32.5 22t31 34t7.5 60.5l-142 1038h-12l-274 -660q0 -33 -28 -102.5t-77 -147t-114.5 -149.5t-141.5 -106l-43 45q47 43 84 82.5t63.5 95t40 135.5t13.5 201 q0 233 -40 418.5t-124 315.5t-214 198.5t-308 68.5q-88 0 -173 -30.5t-150.5 -85t-103.5 -127.5q-34 -66 -34 -142v-16q4 -109 34 -157t77 -54q10 -1 18 -1q37 0 54 20q20 23 20 56q0 82 -31 128q-27 39 -55 59q29 -2 61.5 -17.5t62 -42t50 -61.5t22.5 -76q1 -11 1 -21 q0 -47 -15 -81q-18 -41 -50 -63.5t-74 -29.5q-27 -5 -55 -5q-16 0 -32 2q-43 6 -87 27.5t-82 60.5t-63.5 92t-27.5 121q-1 14 -1 27q0 115 48 210q53 106 148.5 180t225.5 113t279 39q211 0 366 -82t255 -213t147 -294q43 -150 44 -298q0 -13 -1 -26l279 663l100 240 q53 0 99.5 3t101.5 7v-14q-63 -33 -95 -106q-24 -55 -24 -103q0 -16 2 -31zM1918 12q72 23 115 98.5t58 165.5l176 1252q49 -20 77 -62q18 -26 19 -78q0 -30 -6 -69l-152 -1090q-2 -10 -2 -21v-22q0 -59 25.5 -102t87.5 -68l6 -16q-20 4 -51 6t-65 3l-64 2q-31 1 -51 1 q-92 0 -183 -12zM739 10q-53 0 -106 -3t-105 -7v16q49 25 83 72t36 111q4 156 4 310v310v158q0 88 -1 172t-7 192q-4 49 -29 95q84 -4 133.5 -8.5t74 -9.5t31.5 -10t7 -9q0 -8 -5 -29.5t-7 -36.5q-4 -74 -7 -135t-5 -119.5t-3.5 -120t-1.5 -133.5q0 -154 4.5 -307t12.5 -307 q4 -63 32.5 -114.5t90.5 -80.5v-16q-59 4 -117 7t-115 3zM1327 1413q-43 8 -70.5 22.5l-52.5 28.5l-50 29q-26 14 -60 25q-78 23 -155 30.5t-148 7.5q-133 0 -245 -25.5t-192 -72.5t-125 -114.5t-45 -153.5q0 -49 34 -77t61 -28q43 0 87 44.5t44 107.5q0 33 -10.5 55.5 t-20.5 40.5q43 -18 81 -68.5t38 -109.5q0 -53 -21.5 -91t-52.5 -62.5t-66.5 -37t-64.5 -12.5q-94 0 -173 65.5t-79 188.5q0 111 62.5 196t165 142.5t233.5 87t268 29.5q195 0 389 -55l72 -22q37 -11 78 -11q76 0 125 14.5t125 22.5q-134 -76 -232 -197z" />
<glyph unicode="&#xe000;" horiz-adv-x="1195" d="M0 1195h1195v-1195h-1195v1195z" />
<glyph unicode="&#xfb01;" horiz-adv-x="1331" d="M1114 8q-43 0 -87 -2t-83 -6v12q39 16 66.5 49t29.5 78q2 109 2 217v217q0 106 -3 223t-9 224q-2 43 -19.5 85t-76.5 79v8q41 -4 87 -6t89 -2t87 3t87 5v-8q-51 -23 -67.5 -73t-20.5 -95q-6 -57 -7 -119.5t-1 -126.5v-192q0 -106 4 -216l8 -215q4 -45 26.5 -80.5 t71.5 -54.5v-12q-47 4 -93 6t-91 2zM287 1184q23 0 75 2l111 4q57 2 114.5 6t106.5 4q25 0 52.5 -1t51 -4t40 -9t16.5 -17q0 -47 7 -73.5t7 -59.5q0 -12 -8 -12q-12 0 -17 12.5t-16 26.5q-20 27 -81.5 51.5t-200.5 24.5q-41 0 -84 -4.5t-119 -8.5q-8 -20 -9 -46.5t-5 -55.5 q-2 -29 -2 -57v-58q0 -57 1 -114.5t1 -116.5q57 0 112.5 -3t108.5 -3q14 0 26.5 1t26.5 1q51 2 95 8t85 57h17q-4 -35 -8.5 -55t-4.5 -59q0 -37 2.5 -45.5t6.5 -47.5h-23q-27 45 -76 59.5t-102 16.5q-23 2 -47 2h-49q-47 0 -92 -1h-30q-30 0 -59 1q0 -106 4.5 -233 t10.5 -230q2 -45 25.5 -80.5t72.5 -54.5v-12q-49 4 -94 6t-90 2t-88 -2t-82 -6v12q39 16 65.5 49t28.5 78l4 222q2 114 2 223t-3 223.5t-11 222.5q-2 43 -31 84t-96 70l-2 16q20 -2 55 -4t72 -5t72 -5t55 -2z" />
<glyph unicode="&#xfb02;" horiz-adv-x="1880" d="M1124 8q-41 0 -94 -4t-94 -6l-2 16q39 16 76.5 72.5t42.5 101.5q2 109 2 194v193q0 109 -4 224l-9 223q-2 41 -19.5 84t-76.5 78v10q41 -2 86 -5t90 -3q43 0 86 3t88 5v-10q-51 -20 -67.5 -71.5t-20.5 -96.5q-6 -57 -7 -118.5t-1 -125.5v-192q0 -109 3 -195t9 -195 q2 -39 23.5 -65.5t54.5 -40.5t74 -20.5t84 -6.5q59 0 133 15.5t125 50.5q29 20 49 45t34.5 46.5t26 35.5t21.5 14q6 0 8 -7t2 -11q0 -14 -9 -36t-22 -46l-24 -50q-12 -26 -19 -48q-8 -20 -23 -39t-44 -19q-51 -4 -106.5 -7t-106.5 -3q-61 0 -107.5 2t-87.5 3t-82 3t-92 2z M287 1184q23 0 75 2l111 4q57 2 114.5 6t106.5 4q25 0 52.5 -1t51 -4t40 -9t16.5 -17q0 -47 7 -73.5t7 -59.5q0 -12 -8 -12q-12 0 -17 12.5t-16 26.5q-20 27 -81.5 51.5t-200.5 24.5q-41 0 -84 -4.5t-119 -8.5q-8 -20 -9 -46.5t-5 -55.5q-2 -29 -2 -57v-58q0 -57 1 -114.5 t1 -116.5q57 0 112.5 -3t108.5 -3q14 0 26.5 1t26.5 1q51 2 95 8t85 57h17q-4 -35 -8.5 -55t-4.5 -59q0 -37 2.5 -45.5t6.5 -47.5h-23q-27 45 -76 59.5t-102 16.5q-23 2 -47 2h-49q-47 0 -92 -1h-30q-30 0 -59 1q0 -106 4.5 -233t10.5 -230q2 -45 25.5 -80.5t72.5 -54.5v-12 q-49 4 -94 6t-90 2t-88 -2t-82 -6v12q39 16 65.5 49t28.5 78l4 222q2 114 2 223t-3 223.5t-11 222.5q-2 43 -31 84t-96 70l-2 16q20 -2 55 -4t72 -5t72 -5t55 -2z" />
<glyph unicode="&#xfb03;" horiz-adv-x="2232" d="M2015 8q-43 0 -87 -2t-83 -6v12q39 16 66.5 49t29.5 78q2 109 2 217v217q0 106 -3 223t-9 224q-2 43 -19.5 85t-76.5 79v8q41 -4 87 -6t89 -2t87 3t87 5v-8q-51 -23 -67.5 -73t-20.5 -95q-6 -57 -7 -119.5t-1 -126.5v-192q0 -106 4 -216l8 -215q4 -45 26.5 -80.5 t71.5 -54.5v-12q-47 4 -93 6t-91 2zM1188 1184q23 0 75 2l111 4q57 2 114.5 6t106.5 4q25 0 52.5 -1t51 -4t40 -9t16.5 -17q0 -47 7 -73.5t7 -59.5q0 -12 -8 -12q-12 0 -17 12.5t-16 26.5q-20 27 -81.5 51.5t-200.5 24.5q-41 0 -84 -4.5t-119 -8.5q-8 -20 -9 -46.5t-5 -55.5 q-2 -29 -2 -57v-58q0 -57 1 -114.5t1 -116.5q57 0 112.5 -3t108.5 -3q14 0 26.5 1t26.5 1q51 2 95 8t85 57h17q-4 -35 -8.5 -55t-4.5 -59q0 -37 2.5 -45.5t6.5 -47.5h-23q-27 45 -76 59.5t-102 16.5q-23 2 -47 2h-49q-47 0 -92 -1h-30q-30 0 -59 1q0 -106 4.5 -233 t10.5 -230q2 -45 25.5 -80.5t72.5 -54.5v-12q-49 4 -94 6t-90 2t-88 -2t-82 -6v12q39 16 65.5 49t28.5 78l4 222q2 114 2 223t-3 223.5t-11 222.5q-2 43 -31 84t-96 70l-2 16q20 -2 55 -4t72 -5t72 -5t55 -2zM287 1184q23 0 75 2l111 4q57 2 114.5 6t106.5 4q25 0 52.5 -1 t51 -4t40 -9t16.5 -17q0 -47 7 -73.5t7 -59.5q0 -12 -8 -12q-12 0 -17 12.5t-16 26.5q-20 27 -81.5 51.5t-200.5 24.5q-41 0 -84 -4.5t-119 -8.5q-8 -20 -9 -46.5t-5 -55.5q-2 -29 -2 -57v-58q0 -57 1 -114.5t1 -116.5q57 0 112.5 -3t108.5 -3q14 0 26.5 1t26.5 1q51 2 95 8 t85 57h17q-4 -35 -8.5 -55t-4.5 -59q0 -37 2.5 -45.5t6.5 -47.5h-23q-27 45 -76 59.5t-102 16.5q-23 2 -47 2h-49q-47 0 -92 -1h-30q-30 0 -59 1q0 -106 4.5 -233t10.5 -230q2 -45 25.5 -80.5t72.5 -54.5v-12q-49 4 -94 6t-90 2t-88 -2t-82 -6v12q39 16 65.5 49t28.5 78 l4 222q2 114 2 223t-3 223.5t-11 222.5q-2 43 -31 84t-96 70l-2 16q20 -2 55 -4t72 -5t72 -5t55 -2z" />
<glyph unicode="&#xfb04;" horiz-adv-x="2781" d="M2025 8q-41 0 -94 -4t-94 -6l-2 16q39 16 76.5 72.5t42.5 101.5q2 109 2 194v193q0 109 -4 224l-9 223q-2 41 -19.5 84t-76.5 78v10q41 -2 86 -5t90 -3q43 0 86 3t88 5v-10q-51 -20 -67.5 -71.5t-20.5 -96.5q-6 -57 -7 -118.5t-1 -125.5v-192q0 -109 3 -195t9 -195 q2 -39 23.5 -65.5t54.5 -40.5t74 -20.5t84 -6.5q59 0 133 15.5t125 50.5q29 20 49 45t34.5 46.5t26 35.5t21.5 14q6 0 8 -7t2 -11q0 -14 -9 -36t-22 -46l-24 -50q-12 -26 -19 -48q-8 -20 -23 -39t-44 -19q-51 -4 -106.5 -7t-106.5 -3q-61 0 -107.5 2t-87.5 3t-82 3t-92 2z M1188 1184q23 0 75 2l111 4q57 2 114.5 6t106.5 4q25 0 52.5 -1t51 -4t40 -9t16.5 -17q0 -47 7 -73.5t7 -59.5q0 -12 -8 -12q-12 0 -17 12.5t-16 26.5q-20 27 -81.5 51.5t-200.5 24.5q-41 0 -84 -4.5t-119 -8.5q-8 -20 -9 -46.5t-5 -55.5q-2 -29 -2 -57v-58q0 -57 1 -114.5 t1 -116.5q57 0 112.5 -3t108.5 -3q14 0 26.5 1t26.5 1q51 2 95 8t85 57h17q-4 -35 -8.5 -55t-4.5 -59q0 -37 2.5 -45.5t6.5 -47.5h-23q-27 45 -76 59.5t-102 16.5q-23 2 -47 2h-49q-47 0 -92 -1h-30q-30 0 -59 1q0 -106 4.5 -233t10.5 -230q2 -45 25.5 -80.5t72.5 -54.5v-12 q-49 4 -94 6t-90 2t-88 -2t-82 -6v12q39 16 65.5 49t28.5 78l4 222q2 114 2 223t-3 223.5t-11 222.5q-2 43 -31 84t-96 70l-2 16q20 -2 55 -4t72 -5t72 -5t55 -2zM287 1184q23 0 75 2l111 4q57 2 114.5 6t106.5 4q25 0 52.5 -1t51 -4t40 -9t16.5 -17q0 -47 7 -73.5t7 -59.5 q0 -12 -8 -12q-12 0 -17 12.5t-16 26.5q-20 27 -81.5 51.5t-200.5 24.5q-41 0 -84 -4.5t-119 -8.5q-8 -20 -9 -46.5t-5 -55.5q-2 -29 -2 -57v-58q0 -57 1 -114.5t1 -116.5q57 0 112.5 -3t108.5 -3q14 0 26.5 1t26.5 1q51 2 95 8t85 57h17q-4 -35 -8.5 -55t-4.5 -59 q0 -37 2.5 -45.5t6.5 -47.5h-23q-27 45 -76 59.5t-102 16.5q-23 2 -47 2h-49q-47 0 -92 -1h-30q-30 0 -59 1q0 -106 4.5 -233t10.5 -230q2 -45 25.5 -80.5t72.5 -54.5v-12q-49 4 -94 6t-90 2t-88 -2t-82 -6v12q39 16 65.5 49t28.5 78l4 222q2 114 2 223t-3 223.5t-11 222.5 q-2 43 -31 84t-96 70l-2 16q20 -2 55 -4t72 -5t72 -5t55 -2z" />
</font>
</defs>
</svg>
